<?xml version="1.0" encoding="UTF-8"?>
<svg version="1.1" xmlns="http://www.w3.org/2000/svg" width="570" height="438">
<path d="M0 0 C1.18529297 -0.03673828 1.18529297 -0.03673828 2.39453125 -0.07421875 C7.75588094 -0.10098089 11.07906536 0.54138846 15.125 4.375 C20.1349438 12.12414385 22.02065542 22.4773777 24.625 31.25 C28.54910298 44.50164821 28.54910298 44.50164821 33.07958984 57.55419922 C34.37956726 61.06189168 35.60092727 64.59521192 36.81640625 68.1328125 C37.05036102 68.81342743 37.2843158 69.49404236 37.52536011 70.19528198 C38.00452004 71.59082889 38.48328584 72.98651117 38.96166992 74.38232422 C39.6888556 76.50395508 40.4175484 78.62506368 41.14648438 80.74609375 C47.3712156 98.8711166 47.3712156 98.8711166 49.3359375 105.32421875 C49.72007812 106.55785156 50.10421875 107.79148437 50.5 109.0625 C50.87898438 110.30386719 51.25796875 111.54523438 51.6484375 112.82421875 C53.34826827 116.91190703 55.05902961 119.20936184 58.125 122.375 C72.8973162 127.2991054 94.52569347 121.61739827 109.4949646 119.63955688 C119.73358864 118.28860893 129.97234833 116.95809432 140.25 115.9375 C141.18505371 115.83244141 142.12010742 115.72738281 143.08349609 115.61914062 C147.05681359 115.25367564 149.48385954 115.1019668 153.20703125 116.6875 C155.125 118.375 155.125 118.375 155.6875 120.8125 C154.93683793 124.23218274 154.00448502 125.38151037 151.125 127.375 C147.375 127.625 147.375 127.625 144.125 127.375 C144.125 128.035 144.125 128.695 144.125 129.375 C145.671875 129.7153125 145.671875 129.7153125 147.25 130.0625 C152.22934762 131.53115607 155.59444224 134.04228246 158.421875 138.3515625 C161.36554446 144.05744234 162.02242273 149.19595843 160.125 155.375 C157.31882157 160.43813539 153.59496664 165.11785867 148.01171875 167.140625 C141.71606302 168.52723479 136.87083199 168.85774928 131 165.6875 C126.22899188 161.84994999 122.5672395 158.10324688 121.81640625 151.7734375 C121.52445723 144.92590605 122.34674088 140.72882294 126.32421875 135.1171875 C128.43049301 133.0794471 130.36267046 132.28793344 133.125 131.375 C133.125 130.715 133.125 130.055 133.125 129.375 C132.54585846 129.45016846 131.96671692 129.52533691 131.37002563 129.6027832 C125.30314525 130.38895143 119.23516948 131.16621238 113.16650391 131.93847656 C110.90644958 132.22724154 108.64667712 132.51822211 106.38720703 132.81152344 C103.12605512 133.23445183 99.86394859 133.64921297 96.6015625 134.0625 C95.60323395 134.19374268 94.6049054 134.32498535 93.57632446 134.46020508 C87.39028919 135.23406772 81.35781208 135.5362072 75.125 135.375 C75.125 136.035 75.125 136.695 75.125 137.375 C75.95 137.436875 76.775 137.49875 77.625 137.5625 C83.58361594 138.94575013 87.80364346 141.68095315 91.5625 146.5 C94.68428443 152.24408335 95.29243811 158.31006488 93.4765625 164.6328125 C90.68538874 170.90698942 86.32448912 173.81080532 80.3125 176.75 C74.38282152 177.91268205 69.12670307 177.41292011 63.75 174.625 C58.60639684 170.21619729 55.7049058 166.10211095 54.8671875 159.2734375 C54.56984548 153.50500229 55.76410717 149.10394856 59.125 144.375 C60.76154821 143.00486661 62.42303595 141.6629728 64.125 140.375 C64.7952977 138.32027234 64.7952977 138.32027234 65.125 136.375 C64.25488281 136.22804687 64.25488281 136.22804687 63.3671875 136.078125 C54.80350951 134.43887311 49.06409374 130.56383801 44.125 123.375 C40.2198312 116.44051301 37.97414493 109.1431025 35.625 101.5625 C33.2417731 93.94512118 30.81699052 86.37484687 28.04589844 78.88891602 C25.59883927 72.20880778 23.49410814 65.41448208 21.375 58.625 C18.0931081 48.16330917 14.62254988 37.76624877 11.125 27.375 C10.55056152 27.3656543 9.97612305 27.35630859 9.38427734 27.34667969 C6.75534696 27.29264969 4.12813433 27.20907106 1.5 27.125 C0.14455078 27.10373047 0.14455078 27.10373047 -1.23828125 27.08203125 C-7.05929321 26.86958556 -10.40136933 26.17617036 -14.875 22.375 C-17.19071313 19.51895381 -17.82493926 17.70665241 -18.375 14.0625 C-17.7370092 9.35731787 -15.99832408 5.95038414 -12.875 2.375 C-9.09238494 -0.44825617 -4.51912761 0.00730069 0 0 Z " fill="#F1F1F1" transform="translate(201.875,89.625)"/>
<path d="M0 0 C3.42275819 0.00319677 6.8446798 -0.02050747 10.26733398 -0.0456543 C12.45808811 -0.04792434 14.64884454 -0.04863216 16.83959961 -0.04760742 C18.36309776 -0.06142204 18.36309776 -0.06142204 19.91737366 -0.07551575 C25.30578887 -0.04026643 29.19696491 0.24471398 33.83569336 3.31567383 C35.83796781 5.84028074 35.84567401 7.07613814 35.71069336 10.31567383 C34.71598819 13.72609154 33.60346281 15.13500699 30.83569336 17.31567383 C30.17569336 17.31567383 29.51569336 17.31567383 28.83569336 17.31567383 C28.84093018 18.07259521 28.84616699 18.8295166 28.8515625 19.609375 C28.93793569 34.16052378 28.91129729 48.70629029 28.52319336 63.25317383 C28.48947632 65.06241333 28.48947632 65.06241333 28.45507812 66.90820312 C28.04380662 80.02878993 28.04380662 80.02878993 23.41381836 84.77246094 C17.53168923 89.25920037 10.39244249 89.48930096 3.27120972 90.11730957 C-0.61244411 90.46000197 -4.48937286 90.86843538 -8.36743164 91.26879883 C-9.16903214 91.34978821 -9.97063263 91.43077759 -10.79652405 91.51422119 C-20.3895288 92.50424 -29.91851155 93.93966812 -39.44839478 95.40795898 C-60.76985968 98.69026375 -60.76985968 98.69026375 -66.53930664 95.37817383 C-72.1538338 89.71633324 -73.88587101 81.27583307 -76.09008789 73.87036133 C-77.26080994 69.99633565 -78.50918749 66.15461468 -79.78930664 62.31567383 C-80.39645508 60.49036133 -80.39645508 60.49036133 -81.01586914 58.62817383 C-81.68700564 56.69237875 -82.39457437 54.76724992 -83.18774414 52.87817383 C-84.75567135 48.76393284 -85.65418941 44.47570146 -86.66430664 40.19848633 C-87.83252111 35.36134828 -88.88853901 31.00150962 -91.91430664 27.00317383 C-93.50032006 23.59324497 -93.31780869 21.70568314 -92.18383789 18.17114258 C-89.70770971 13.66477902 -84.70799055 12.78116614 -80.13305664 11.40161133 C-70.88473552 8.92869068 -61.48040396 7.0953516 -52.10180664 5.19067383 C-50.86027832 4.93688965 -49.61875 4.68310547 -48.33959961 4.42163086 C-44.62048263 3.68113553 -40.89691876 2.98470599 -37.16430664 2.31567383 C-36.05079834 2.11337158 -34.93729004 1.91106934 -33.79003906 1.70263672 C-22.56747484 -0.07109672 -11.33773758 -0.02220667 0 0 Z M-39.85180664 17.06567383 C-41.16259267 17.33425286 -42.47338374 17.60280727 -43.78417969 17.87133789 C-51.38670056 19.44484477 -58.95741534 21.13175754 -66.47680664 23.06567383 C-67.25822021 23.26386719 -68.03963379 23.46206055 -68.84472656 23.66625977 C-70.63727849 24.14922712 -72.4050425 24.72280826 -74.16430664 25.31567383 C-75.69122524 28.36951102 -74.48019419 30.35481037 -73.53930664 33.58911133 C-73.35699493 34.22103394 -73.17468323 34.85295654 -72.98684692 35.50402832 C-72.38779374 37.56882445 -71.77701359 39.62989109 -71.16430664 41.69067383 C-70.9590033 42.38775452 -70.75369995 43.08483521 -70.54217529 43.80303955 C-67.93601692 52.64502598 -65.25828694 61.46272566 -62.28930664 70.19067383 C-62.01602539 71.01486816 -61.74274414 71.8390625 -61.46118164 72.68823242 C-60.78926596 74.59961631 -59.98914372 76.4651326 -59.16430664 78.31567383 C-55.19495724 79.6387903 -51.91709064 78.83257185 -47.88696289 78.17114258 C-46.17080234 77.90394974 -44.4545722 77.63720358 -42.73828125 77.37084961 C-41.83769989 77.22875061 -40.93711853 77.08665161 -40.00924683 76.94024658 C-22.40399377 74.17476883 -4.97839164 72.13580594 12.83569336 71.31567383 C15.03833555 52.36867399 15.96341007 33.39040102 15.83569336 14.31567383 C-3.03420561 12.42412359 -21.277656 13.19197867 -39.85180664 17.06567383 Z " fill="#F1F1F1" transform="translate(331.164306640625,111.684326171875)"/>
<path d="M0 0 C1.27037109 -0.04930664 1.27037109 -0.04930664 2.56640625 -0.09960938 C6.91918534 -0.13684154 9.84401494 0.03362146 13.296875 2.83984375 C16.73709804 6.48275509 16.73709804 6.48275509 16.77734375 9.4609375 C16.71764272 11.02354695 16.65516084 12.58605273 16.58984375 14.1484375 C16.76968791 16.7188931 17.60739588 18.15677257 18.75 20.4375 C19.07974382 24.27764158 18.89131463 28.02333464 16.41015625 31.09765625 C10.93100212 35.6926437 7.07171063 35.62000607 0.25 35.625 C-0.63042969 35.63724609 -1.51085937 35.64949219 -2.41796875 35.66210938 C-3.25972656 35.66404297 -4.10148437 35.66597656 -4.96875 35.66796875 C-5.74154297 35.67207764 -6.51433594 35.67618652 -7.31054688 35.68041992 C-9.25 35.4375 -9.25 35.4375 -11.25 33.4375 C-11.50878906 30.39648438 -11.50878906 30.39648438 -11.515625 26.53125 C-11.51753845 25.85074585 -11.5194519 25.1702417 -11.52142334 24.46911621 C-11.52278463 23.03002554 -11.51909205 21.59092256 -11.51074219 20.15185547 C-11.50004128 17.94600913 -11.51063872 15.74097719 -11.5234375 13.53515625 C-11.52211589 12.13801903 -11.51955348 10.74088232 -11.515625 9.34375 C-11.51336914 8.06822266 -11.51111328 6.79269531 -11.50878906 5.47851562 C-10.93051064 -1.31680138 -5.4117713 0.03640205 0 0 Z M-1.25 9.4375 C-1.25 10.0975 -1.25 10.7575 -1.25 11.4375 C1.39 11.4375 4.03 11.4375 6.75 11.4375 C6.75 10.7775 6.75 10.1175 6.75 9.4375 C4.11 9.4375 1.47 9.4375 -1.25 9.4375 Z M-1.25 21.4375 C-1.58 23.0875 -1.91 24.7375 -2.25 26.4375 C-0.79257537 26.51846803 0.66612807 26.57667774 2.125 26.625 C3.34316406 26.67720703 3.34316406 26.67720703 4.5859375 26.73046875 C5.30007813 26.63378906 6.01421875 26.53710938 6.75 26.4375 C7.41 25.4475 8.07 24.4575 8.75 23.4375 C8.42 22.7775 8.09 22.1175 7.75 21.4375 C4.78 21.4375 1.81 21.4375 -1.25 21.4375 Z " fill="#EDEDED" transform="translate(328.25,286.5625)"/>
<path d="M0 0 C4.42789979 2.55265119 7.48128656 5.38411021 9.65625 10.08203125 C11.14169693 16.90064526 11.17459483 22.01591948 7.65625 28.08203125 C4.89539127 32.27092036 2.40987955 34.40945789 -2.34375 36.08203125 C-9.15037423 37.01851311 -14.71250546 36.1136382 -20.34375 32.08203125 C-25.55885173 26.59948841 -25.75690927 21.70197802 -25.68359375 14.38671875 C-25.10929403 8.80214906 -22.92429188 5.43468112 -18.83984375 1.7109375 C-13.36554801 -2.10128291 -6.12778828 -2.40005041 0 0 Z M-14.34375 11.26953125 C-14.67375 12.19765625 -15.00375 13.12578125 -15.34375 14.08203125 C-15.653125 14.86578125 -15.9625 15.64953125 -16.28125 16.45703125 C-16.37701629 20.47921553 -14.50824434 22.73690364 -12.34375 26.08203125 C-6.45434437 26.74733627 -6.45434437 26.74733627 -1.34375 24.45703125 C-0.10678407 21.51923716 0.52809356 19.28594233 0.65625 16.08203125 C-0.87458367 12.28762777 -0.87458367 12.28762777 -3.34375 9.08203125 C-9.47383241 8.18440726 -9.47383241 8.18440726 -14.34375 11.26953125 Z " fill="#E5E5E5" transform="translate(230.34375,286.91796875)"/>
<path d="M0 0 C3 0.25 3 0.25 5 2.25 C5.1953125 5.0703125 5.1953125 5.0703125 5.125 8.375 C5.10695313 9.47070312 5.08890625 10.56640625 5.0703125 11.6953125 C5.04710937 12.53835938 5.02390625 13.38140625 5 14.25 C8.465 13.755 8.465 13.755 12 13.25 C12.33 9.29 12.66 5.33 13 1.25 C16.3125 0.5625 16.3125 0.5625 20 0.25 C21.71484375 1.45703125 21.71484375 1.45703125 23 3.25 C23.328125 5.3359375 23.328125 5.3359375 23.25 7.625 C23.22808594 8.42421875 23.20617187 9.2234375 23.18359375 10.046875 C23 12.25 23 12.25 22.3125 14.875 C21.91716134 17.87957385 23.01269615 19.54678225 24.28515625 22.21484375 C25.63383013 26.05451091 25.71134337 30.26089796 25 34.25 C23.63671875 36.02734375 23.63671875 36.02734375 22 37.25 C19.4375 37.5625 19.4375 37.5625 17 37.25 C14.50600835 34.75600835 14.67067912 33.63557427 14.4375 30.1875 C14.46018047 26.91160436 14.46018047 26.91160436 13 24.25 C11.65252916 24.01924918 10.29622435 23.83846937 8.9375 23.6875 C7.638125 23.543125 6.33875 23.39875 5 23.25 C5.03480469 24.09304688 5.06960938 24.93609375 5.10546875 25.8046875 C5.13253906 26.90039062 5.15960938 27.99609375 5.1875 29.125 C5.22230469 30.21554687 5.25710938 31.30609375 5.29296875 32.4296875 C5.19628906 33.36039062 5.09960938 34.29109375 5 35.25 C1.77626323 37.39915785 0.73296326 37.63286803 -3 37.25 C-5.46002787 34.78997213 -5.24552005 33.40206161 -5.27789307 30.04333496 C-5.2738446 29.33809692 -5.26979614 28.63285889 -5.265625 27.90625 C-5.26753845 27.18135376 -5.2694519 26.45645752 -5.27142334 25.70959473 C-5.27278487 24.17634738 -5.26909064 22.6430885 -5.26074219 21.10986328 C-5.25004178 18.75917741 -5.26063808 16.40925577 -5.2734375 14.05859375 C-5.2721159 12.57031081 -5.26955349 11.08202834 -5.265625 9.59375 C-5.26967346 8.88851196 -5.27372192 8.18327393 -5.27789307 7.45666504 C-5.21020702 0.43418392 -5.21020702 0.43418392 0 0 Z " fill="#EBEBEB" transform="translate(253,285.75)"/>
<path d="M0 0 C1.45116211 -0.01836914 1.45116211 -0.01836914 2.93164062 -0.03710938 C4.32479492 -0.04000977 4.32479492 -0.04000977 5.74609375 -0.04296875 C7.02311157 -0.04913208 7.02311157 -0.04913208 8.32592773 -0.05541992 C10.5625 0.1875 10.5625 0.1875 13.5625 2.1875 C13.15174883 7.86595472 11.48460472 11.46854224 8.125 15.9375 C7.71701172 16.50082031 7.30902344 17.06414062 6.88867188 17.64453125 C5.78745322 19.16432077 4.67547781 20.67630077 3.5625 22.1875 C2.9025 23.1775 2.2425 24.1675 1.5625 25.1875 C2.26117188 25.23648437 2.95984375 25.28546875 3.6796875 25.3359375 C4.58976562 25.41070312 5.49984375 25.48546875 6.4375 25.5625 C7.34242188 25.63210938 8.24734375 25.70171875 9.1796875 25.7734375 C11.5625 26.1875 11.5625 26.1875 13.5625 28.1875 C13.3125 31.25 13.3125 31.25 12.5625 34.1875 C8.67558052 36.13095974 3.83735419 35.37230803 -0.4375 35.375 C-1.46101563 35.38724609 -2.48453125 35.39949219 -3.5390625 35.41210938 C-4.51617187 35.41404297 -5.49328125 35.41597656 -6.5 35.41796875 C-7.39847656 35.42207764 -8.29695313 35.42618652 -9.22265625 35.43041992 C-11.4375 35.1875 -11.4375 35.1875 -13.4375 33.1875 C-13.99997459 29.2724541 -13.66165665 27.55263567 -11.57421875 24.15234375 C-10.76597656 23.15332031 -9.95773437 22.15429688 -9.125 21.125 C-6.29133447 17.57949578 -3.67821424 14.1395688 -1.4375 10.1875 C-2.48550781 10.13142578 -2.48550781 10.13142578 -3.5546875 10.07421875 C-4.46476562 10.00847656 -5.37484375 9.94273437 -6.3125 9.875 C-7.21742188 9.81699219 -8.12234375 9.75898438 -9.0546875 9.69921875 C-11.4375 9.1875 -11.4375 9.1875 -13.4375 6.1875 C-13.1875 3.5625 -13.1875 3.5625 -12.4375 1.1875 C-8.68151541 -0.6904923 -4.13276018 0.00274238 0 0 Z " fill="#E6E6E6" transform="translate(384.4375,286.8125)"/>
<path d="M0 0 C2.5625 0.375 2.5625 0.375 4.2043457 2.05957031 C5.85352097 4.87114288 5.90950206 6.55487667 5.85546875 9.796875 C5.84580078 10.82167969 5.83613281 11.84648437 5.82617188 12.90234375 C5.80103516 13.96582031 5.77589844 15.02929688 5.75 16.125 C5.73646484 17.20394531 5.72292969 18.28289062 5.70898438 19.39453125 C5.67366584 22.0551942 5.62434199 24.71484296 5.5625 27.375 C6.93535156 27.32279297 6.93535156 27.32279297 8.3359375 27.26953125 C9.52445313 27.24246094 10.71296875 27.21539062 11.9375 27.1875 C13.12085938 27.15269531 14.30421875 27.11789062 15.5234375 27.08203125 C17.02777344 27.22705078 17.02777344 27.22705078 18.5625 27.375 C20.5625 30.375 20.5625 30.375 20.25 33 C19.5625 35.375 19.5625 35.375 18.5625 36.375 C15.09041193 36.62598924 11.6050938 36.56022096 8.125 36.5625 C7.14466797 36.57474609 6.16433594 36.58699219 5.15429688 36.59960938 C4.21779297 36.60154297 3.28128906 36.60347656 2.31640625 36.60546875 C1.45345947 36.60957764 0.5905127 36.61368652 -0.29858398 36.61791992 C-2.4375 36.375 -2.4375 36.375 -4.4375 34.375 C-4.69628906 31.2421875 -4.69628906 31.2421875 -4.703125 27.25 C-4.70503845 26.5472998 -4.7069519 25.84459961 -4.70892334 25.12060547 C-4.71028475 23.63443646 -4.70659132 22.14825555 -4.69824219 20.66210938 C-4.68754154 18.38384354 -4.69813839 16.10636623 -4.7109375 13.828125 C-4.7096159 12.38541492 -4.70705349 10.94270534 -4.703125 9.5 C-4.70086914 8.18257813 -4.69861328 6.86515625 -4.69628906 5.5078125 C-4.38144437 1.69640954 -3.84792684 0.59198875 0 0 Z " fill="#EDEDED" transform="translate(180.4375,285.625)"/>
<path d="M0 0 C0.94875 0.04125 1.8975 0.0825 2.875 0.125 C4.75914642 3.31957351 5.11319737 5.64002629 5.0703125 9.328125 C5.06064453 10.79765625 5.06064453 10.79765625 5.05078125 12.296875 C5.03402344 13.31265625 5.01726562 14.3284375 5 15.375 C4.99097656 16.40625 4.98195313 17.4375 4.97265625 18.5 C4.94912011 21.04190287 4.91624023 23.5833328 4.875 26.125 C6.13957031 26.21587891 6.13957031 26.21587891 7.4296875 26.30859375 C9.07324219 26.43427734 9.07324219 26.43427734 10.75 26.5625 C12.38582031 26.68431641 12.38582031 26.68431641 14.0546875 26.80859375 C16.875 27.125 16.875 27.125 18.875 28.125 C19.6875 30.5 19.6875 30.5 19.875 33.125 C18.29738981 35.28118485 17.38431312 36.03658765 14.73022461 36.49731445 C13.92077393 36.4943335 13.11132324 36.49135254 12.27734375 36.48828125 C11.39369141 36.48763672 10.51003906 36.48699219 9.59960938 36.48632812 C8.67986328 36.47021484 7.76011719 36.45410156 6.8125 36.4375 C5.42708008 36.44233398 5.42708008 36.44233398 4.01367188 36.44726562 C-2.85794827 36.39205173 -2.85794827 36.39205173 -5.125 34.125 C-5.38378906 30.9921875 -5.38378906 30.9921875 -5.390625 27 C-5.39253845 26.2972998 -5.3944519 25.59459961 -5.39642334 24.87060547 C-5.39778475 23.38443646 -5.39409132 21.89825555 -5.38574219 20.41210938 C-5.37504154 18.13384354 -5.38563839 15.85636623 -5.3984375 13.578125 C-5.3971159 12.13541492 -5.39455349 10.69270534 -5.390625 9.25 C-5.38836914 7.93257813 -5.38611328 6.61515625 -5.38378906 5.2578125 C-5.02918466 0.96509204 -4.32260647 0.17290426 0 0 Z " fill="#F4F4F4" transform="translate(290.125,285.875)"/>
<path d="M0 0 C2.875 -0.1875 2.875 -0.1875 6 0 C8.37819272 3.56728908 8.66632296 6.66560841 9.125 10.8125 C9.21136719 11.51181641 9.29773438 12.21113281 9.38671875 12.93164062 C9.863335 16.97531345 10.08944885 20.93007733 10 25 C10.75925781 24.89300781 11.51851563 24.78601563 12.30078125 24.67578125 C13.29464844 24.55589844 14.28851563 24.43601563 15.3125 24.3125 C16.29863281 24.18488281 17.28476562 24.05726563 18.30078125 23.92578125 C21 24 21 24 22.875 25.3125 C24 27 24 27 23.6875 29.6875 C23.3471875 30.8321875 23.3471875 30.8321875 23 32 C16.61245552 34.22821319 9.76910418 35.33845521 3 35 C0.59622279 33.3070268 0.05637406 32.26691645 -0.5559082 29.36791992 C-0.63671631 28.33256104 -0.71752441 27.29720215 -0.80078125 26.23046875 C-0.93516602 24.52600586 -0.93516602 24.52600586 -1.07226562 22.78710938 C-1.15154297 21.59923828 -1.23082031 20.41136719 -1.3125 19.1875 C-1.41111328 18.01123047 -1.50972656 16.83496094 -1.61132812 15.62304688 C-2.03691604 9.78688395 -2.13550862 5.53598688 0 0 Z " fill="#E7E7E7" transform="translate(277,139)"/>
<path d="M0 0 C0.99 0.103125 1.98 0.20625 3 0.3125 C6.24964548 5.18696822 5.33300751 10.91394418 5.31567383 16.61865234 C5.31251104 18.80486769 5.33598905 20.98973292 5.36132812 23.17578125 C5.36360094 24.56510246 5.3643047 25.95442731 5.36328125 27.34375 C5.36626221 28.60767578 5.36924316 29.87160156 5.37231445 31.17382812 C5 34.3125 5 34.3125 3.63745117 36.22851562 C1.32121123 37.76185472 -0.28437078 37.66065759 -3 37.3125 C-5.46002787 34.85247213 -5.24552005 33.46456161 -5.27789307 30.10583496 C-5.2738446 29.40059692 -5.26979614 28.69535889 -5.265625 27.96875 C-5.26753845 27.24385376 -5.2694519 26.51895752 -5.27142334 25.77209473 C-5.27278487 24.23884738 -5.26909064 22.7055885 -5.26074219 21.17236328 C-5.25004178 18.82167741 -5.26063808 16.47175577 -5.2734375 14.12109375 C-5.2721159 12.63281081 -5.26955349 11.14452834 -5.265625 9.65625 C-5.26967346 8.95101196 -5.27372192 8.24577393 -5.27789307 7.51916504 C-5.23224518 2.78316041 -5.20814113 0.5425147 0 0 Z " fill="#D5D5D5" transform="translate(359,285.6875)"/>
<path d="M0 0 C0.33 0 0.66 0 1 0 C1.53375705 6.40508456 1.00981998 11.74297849 -3 17 C-3.99 17.33 -4.98 17.66 -6 18 C-6.33 17.34 -6.66 16.68 -7 16 C-6.00390625 13.6171875 -6.00390625 13.6171875 -4.5625 10.875 C-3.85287109 9.50988281 -3.85287109 9.50988281 -3.12890625 8.1171875 C-2.75636719 7.41851562 -2.38382812 6.71984375 -2 6 C-1.34 6 -0.68 6 0 6 C0 4.02 0 2.04 0 0 Z " fill="#C7C7C7" transform="translate(295,243)"/>
<path d="M0 0 C-0.99 0 -1.98 0 -3 0 C-3.33 0.99 -3.66 1.98 -4 3 C-5.92578125 3.80078125 -5.92578125 3.80078125 -8.3125 4.3125 C-9.48232422 4.58513672 -9.48232422 4.58513672 -10.67578125 4.86328125 C-13.38991962 5.02293645 -14.70900967 4.39975839 -17 3 C-14.03492919 1.70278152 -11.05432462 0.66889854 -7.9375 -0.1875 C-7.28652344 -0.36667969 -6.63554687 -0.54585938 -5.96484375 -0.73046875 C-3.71601442 -1.03895627 -2.15001228 -0.67517089 0 0 Z " fill="#BBBBBB" transform="translate(260,123)"/>
<path d="M0 0 C0.94875 0.04125 1.8975 0.0825 2.875 0.125 C2.25625 0.41375 1.6375 0.7025 1 1 C-1.25825765 2.06220042 -1.25825765 2.06220042 -3.125 4.125 C-3.49504294 6.35158154 -3.49504294 6.35158154 -3.5390625 8.9140625 C-3.57773437 9.85507812 -3.61640625 10.79609375 -3.65625 11.765625 C-3.6871875 12.75046875 -3.718125 13.7353125 -3.75 14.75 C-3.78867187 15.74257813 -3.82734375 16.73515625 -3.8671875 17.7578125 C-3.9616314 20.21335385 -4.04719875 22.6688841 -4.125 25.125 C-4.455 25.125 -4.785 25.125 -5.125 25.125 C-5.18286668 21.33339703 -5.21855054 17.54190689 -5.25 13.75 C-5.26675781 12.66976563 -5.28351563 11.58953125 -5.30078125 10.4765625 C-5.30722656 9.4453125 -5.31367188 8.4140625 -5.3203125 7.3515625 C-5.33078613 6.39846191 -5.34125977 5.44536133 -5.35205078 4.46337891 C-4.97877983 0.61908944 -3.73391408 0.14935656 0 0 Z " fill="#8F8F8F" transform="translate(290.125,285.875)"/>
<path d="M0 0 C2.18614424 2.18614424 2.68256535 3.53879949 3.625 6.4375 C3.88539063 7.21996094 4.14578125 8.00242187 4.4140625 8.80859375 C5 11 5 11 5 14 C3.68 14 2.36 14 1 14 C-0.37432457 10.18243176 0.32024961 6.92744671 1 3 C0.34 2.67 -0.32 2.34 -1 2 C-0.67 1.34 -0.34 0.68 0 0 Z " fill="#BDBDBD" transform="translate(217,95)"/>
<path d="M0 0 C3 1 3 1 4.8125 3.3125 C6 6 6 6 5.1875 8.3125 C4.795625 8.869375 4.40375 9.42625 4 10 C0 4.5 0 4.5 0 0 Z " fill="#CDCDCC" transform="translate(258,251)"/>
<path d="M0 0 C4.21422242 2.88341534 5.76075855 5.04303419 7 10 C6.01 10 5.02 10 4 10 C0 3.375 0 3.375 0 0 Z " fill="#C7C7C7" transform="translate(288,231)"/>
<path d="M0 0 C-0.625 2.8125 -0.625 2.8125 -2 6 C-5.125 7.875 -5.125 7.875 -8 9 C-6.68994234 5.06982701 -4.75047804 0 0 0 Z " fill="#C8C8C8" transform="translate(193,91)"/>
<path d="M0 0 C1.0625 1.8125 1.0625 1.8125 2 4 C1 7 1 7 -1 8 C-1.40729228 10.32156597 -1.74438677 12.6568787 -2 15 C-2.33 15 -2.66 15 -3 15 C-3.3152595 9.01006953 -2.68219822 5.36439644 0 0 Z " fill="#C7C7C7" transform="translate(260,235)"/>
<path d="M0 0 C0.99 0 1.98 0 3 0 C5.56687367 3.8503105 4.83288724 5.58569763 4 10 C1.81024227 6.71536341 1.00193437 3.79303725 0 0 Z " fill="#B2B2B2" transform="translate(218,131)"/>
<path d="M0 0 C1.875 0.5625 1.875 0.5625 4 2 C5.25 5.625 5.25 5.625 6 9 C4.125 8.8125 4.125 8.8125 2 8 C0.47835901 5.10888212 0 3.28176588 0 0 Z " fill="#BEBEBE" transform="translate(242,202)"/>
<path d="M0 0 C0.66 0 1.32 0 2 0 C2.625 3.375 2.625 3.375 3 7 C2.34 7.66 1.68 8.32 1 9 C-1.09230769 4.56923077 -1.09230769 4.56923077 -0.625 1.6875 C-0.41875 1.130625 -0.2125 0.57375 0 0 Z " fill="#C4C4C4" transform="translate(230,162)"/>
<path d="M0 0 C1.8830622 3.26397448 2.67342446 6.24438133 3 10 C2.34 10.66 1.68 11.32 1 12 C0.63597631 10.56496445 0.28413409 9.12683494 -0.0625 7.6875 C-0.25972656 6.88699219 -0.45695312 6.08648437 -0.66015625 5.26171875 C-1 3 -1 3 0 0 Z " fill="#D8D8D8" transform="translate(258,146)"/>
<path d="M0 0 C2.62187494 1.04874998 3.79371361 1.64931313 5.25 4.125 C5.4975 4.74375 5.745 5.3625 6 6 C5.34 6.66 4.68 7.32 4 8 C0 3.375 0 3.375 0 0 Z " fill="#D6D6D6" transform="translate(325,244)"/>
<path d="M0 0 C0.33 0.66 0.66 1.32 1 2 C1.99 2 2.98 2 4 2 C4.33 3.98 4.66 5.96 5 8 C4.01 8 3.02 8 2 8 C0.74335022 5.09399739 0 3.20395416 0 0 Z " fill="#DADADA" transform="translate(238,189)"/>
<path d="M0 0 C0.66 0.33 1.32 0.66 2 1 C-0.46941056 3.59937954 -3.18060883 5.79020692 -6 8 C-6 6.68 -6 5.36 -6 4 C-3 1.75 -3 1.75 0 0 Z " fill="#B2B2B2" transform="translate(215,287)"/>
<path d="M0 0 C0.33 0 0.66 0 1 0 C1.0270043 1.45823212 1.04639787 2.91660675 1.0625 4.375 C1.07410156 5.18710938 1.08570313 5.99921875 1.09765625 6.8359375 C1 9 1 9 0 11 C-0.99 11 -1.98 11 -3 11 C-2.67 9.35 -2.34 7.7 -2 6 C-1.34 6 -0.68 6 0 6 C0 4.02 0 2.04 0 0 Z " fill="#B9B9B9" transform="translate(295,243)"/>
<path d="M0 0 C0.33 0 0.66 0 1 0 C1.103125 0.7425 1.20625 1.485 1.3125 2.25 C2.04253504 5.17014018 3.06789398 6.73187554 5 9 C4.01 10.485 4.01 10.485 3 12 C0.01485372 7.89542386 -0.2954439 5.02254631 0 0 Z " fill="#ABABAB" transform="translate(184,100)"/>
<path d="M0 0 C2.29633824 3.44450737 2.54016485 5.93812283 3 10 C2.67 9.34 2.34 8.68 2 8 C1.34 8 0.68 8 0 8 C-0.98120464 4.94736336 -0.98120464 3.05263664 0 0 Z " fill="#C1C1C1" transform="translate(227,126)"/>
<path d="M0 0 C1.65 1.32 3.3 2.64 5 4 C4.67 5.32 4.34 6.64 4 8 C2 6.25 2 6.25 0 4 C0 2.68 0 1.36 0 0 Z " fill="#D8D8D8" transform="translate(217,125)"/>
<path d="M0 0 C-1 1.5625 -1 1.5625 -3 3 C-5.76614782 2.96726452 -8.26030547 2.49404328 -11 2 C-11 1.67 -11 1.34 -11 1 C-7.26562152 0.12132271 -3.83225427 -0.08912219 0 0 Z " fill="#B7B7B7" transform="translate(294,115)"/>
<path d="M0 0 C-0.66 0 -1.32 0 -2 0 C-2.33 0.99 -2.66 1.98 -3 3 C-5.64 2.67 -8.28 2.34 -11 2 C-6.99642627 -0.14477164 -4.43233175 -1.47744392 0 0 Z " fill="#9A9A9A" transform="translate(271,120)"/>
<path d="M0 0 C1.32 0.33 2.64 0.66 4 1 C3.67 3.31 3.34 5.62 3 8 C1.0549 5.08235 0.54723683 3.37462715 0 0 Z " fill="#CACACA" transform="translate(214,117)"/>
<path d="M0 0 C0.99 0 1.98 0 3 0 C3.93065133 2.60582371 4.14917407 3.64198224 3.0625 6.25 C2.5365625 7.11625 2.5365625 7.11625 2 8 C0.74335022 5.09399739 0 3.20395416 0 0 Z " fill="#A6A6A6" transform="translate(225,151)"/>
</svg>
