<?xml version="1.0" encoding="UTF-8"?>
<svg version="1.1" xmlns="http://www.w3.org/2000/svg" width="665" height="295">
<path d="M0 0 C1.77206192 0.00015919 3.54412846 0.00585754 5.31616211 0.01586914 C6.24698105 0.01728409 7.17779999 0.01869904 8.13682556 0.02015686 C11.12241777 0.02577367 14.10793615 0.03832899 17.09350586 0.05102539 C19.11238499 0.05603823 21.13126529 0.06060151 23.15014648 0.06469727 C28.11046158 0.07574856 33.07072118 0.09302444 38.03100586 0.11352539 C38.03100586 2.75352539 38.03100586 5.39352539 38.03100586 8.11352539 C37.04100586 8.44352539 36.05100586 8.77352539 35.03100586 9.11352539 C35.68685775 12.72344919 35.68685775 12.72344919 37.03100586 16.11352539 C38.10741333 15.93285522 38.10741333 15.93285522 39.20556641 15.74853516 C87.22967535 7.71286014 87.22967535 7.71286014 92.03100586 10.11352539 C91.5083212 12.87628716 90.92230999 15.43961299 90.03100586 18.11352539 C90.97459961 18.28174805 90.97459961 18.28174805 91.93725586 18.45336914 C98.26974913 19.91251292 102.10880828 22.11772249 106.20678711 27.17993164 C111.1568243 35.14026982 113.75450862 43.89737151 115.03100586 53.11352539 C113.97944305 53.10686356 112.92788025 53.10020172 111.8444519 53.09333801 C101.9276726 53.03248587 92.01093124 52.98753301 82.09400749 52.95808887 C76.99577926 52.94244239 71.89770194 52.92122256 66.79956055 52.88720703 C61.87827193 52.8545775 56.95712835 52.83666472 52.0357399 52.82889366 C50.15948326 52.82335662 48.28323443 52.81254411 46.40703964 52.79633522 C43.77615035 52.77451318 41.14585802 52.77156046 38.51489258 52.77294922 C37.74165146 52.76216339 36.96841034 52.75137756 36.17173767 52.74026489 C31.34343967 52.76778834 28.19230851 53.71223671 24.03100586 56.11352539 C18.38465051 57.56426779 13.48287521 57.81685019 8.21850586 55.11352539 C3.05669145 51.77407198 -0.56571106 47.79806693 -3.40649414 42.36352539 C-4.64199431 35.22507998 -4.06778882 29.1696139 -0.03149414 23.05102539 C1.56008556 20.88851047 3.1308633 19.01366795 5.03100586 17.11352539 C3.18100797 11.79196111 3.18100797 11.79196111 -0.79321289 8.13696289 C-2.91910562 7.52035607 -2.91910562 7.52035607 -5.96899414 7.11352539 C-4.93053715 0.14102847 -4.93053715 0.14102847 0 0 Z M10.03100586 8.11352539 C10.36100586 10.42352539 10.69100586 12.73352539 11.03100586 15.11352539 C11.69100586 15.11352539 12.35100586 15.11352539 13.03100586 15.11352539 C13.03100586 12.80352539 13.03100586 10.49352539 13.03100586 8.11352539 C12.04100586 8.11352539 11.05100586 8.11352539 10.03100586 8.11352539 Z M14.03100586 9.11352539 C14.36100586 10.76352539 14.69100586 12.41352539 15.03100586 14.11352539 C19.65100586 15.10352539 24.27100586 16.09352539 29.03100586 17.11352539 C27.36918998 12.90470672 27.36918998 12.90470672 25.03100586 9.11352539 C21.08896366 7.91683401 17.93040779 7.7097407 14.03100586 9.11352539 Z " fill="#80CA2B" transform="translate(54.968994140625,127.886474609375)"/>
<path d="M0 0 C2 2.5625 2 2.5625 3 6 C2.34 8.64 1.68 11.28 1 14 C12.55 14.33 24.1 14.66 36 15 C36.33 14.34 36.66 13.68 37 13 C39 15 39 15 39.1953125 17.1640625 C39.13020833 19.44270833 39.06510417 21.72135417 39 24 C39.99 21.03 40.98 18.06 42 15 C54.38351583 14.28211502 63.44609535 18.22318683 73 26 C76.38220054 29.03879703 79.3624845 32.10349383 82 35.8125 C84.66728219 38.72983989 87.20007299 39.19616929 91 40 C91.04241723 42.33294775 91.04092937 44.66702567 91 47 C90 48 90 48 87.83862305 48.06591797 C86.90574463 48.04158691 85.97286621 48.01725586 85.01171875 47.9921875 C83.99529297 47.97542969 82.97886719 47.95867187 81.93164062 47.94140625 C79.78041914 47.89737161 77.62934493 47.84537423 75.47851562 47.78515625 C74.45822266 47.77097656 73.43792969 47.75679687 72.38671875 47.7421875 C70.98232544 47.70907471 70.98232544 47.70907471 69.54956055 47.67529297 C66.53797813 48.0588422 65.28315461 49.0639445 63 51 C56.86369328 52.79211915 52.54843395 51.88518566 47 49 C44.24921116 48.08307039 42.64051087 47.89113917 39.8125 47.9375 C38.554375 47.958125 37.29625 47.97875 36 48 C34.59074296 43.63130319 35.43271425 40.30155643 36.52734375 35.98828125 C37.07709199 34.01631883 37.07709199 34.01631883 37 32 C36.74605469 33.05960938 36.49210937 34.11921875 36.23046875 35.2109375 C35.88342521 36.59911165 35.53573523 37.98712431 35.1875 39.375 C35.02185547 40.07367188 34.85621094 40.77234375 34.68554688 41.4921875 C33.33984375 46.7734375 33.33984375 46.7734375 30 49 C30.37125 50.0725 30.7425 51.145 31.125 52.25 C32 56 32 56 31.25 58.375 C30 60 30 60 28 61 C24.625 61.375 24.625 61.375 21 61 C18.5 58.8125 18.5 58.8125 17 56 C17.15922477 52.57666749 17.5631237 51.4368763 20 49 C14.72 49 9.44 49 4 49 C4.66 49.99 5.32 50.98 6 52 C5.8125 55.5625 5.8125 55.5625 5 59 C1.50875983 61.32749345 0.10777749 61.50299316 -4 61 C-6.4375 59.4375 -6.4375 59.4375 -8 57 C-7.67857143 50.67857143 -7.67857143 50.67857143 -6 49 C-6.60956543 48.62399658 -7.21913086 48.24799316 -7.84716797 47.8605957 C-10.54196107 45.53160747 -11.23292317 43.56674611 -12.4453125 40.23046875 C-13.10273438 38.52600586 -13.10273438 38.52600586 -13.7734375 36.78710938 C-14.66774873 34.40529494 -15.54564947 32.01724806 -16.40625 29.62304688 C-19.19925954 22.48311353 -21.60534767 18.5587927 -28.53076172 15.04418945 C-31.00842866 13.9964357 -33.49443057 12.97916559 -36 12 C-34.125 7.125 -34.125 7.125 -33 6 C-26.2064733 6.11918468 -21.83163634 8.15551356 -17 13 C-17 13.66 -17 14.32 -17 15 C-13.7 14.67 -10.4 14.34 -7 14 C-7.825 13.46375 -8.65 12.9275 -9.5 12.375 C-12 10 -12 10 -12.5 7 C-11.95698679 3.74192075 -11.31873852 2.31873852 -9 0 C-5.38597653 -1.20467449 -3.62816543 -1.1338017 0 0 Z " fill="#1C5D44" transform="translate(182,133)"/>
<path d="M0 0 C2.45179401 3.44783533 2.85476419 5.60066161 3 9.8125 C2.79375 11.029375 2.5875 12.24625 2.375 13.5 C1.66084063 16.7750985 1.66084063 16.7750985 3.375 19.0625 C3.91125 19.64 4.4475 20.2175 5 20.8125 C6.75326103 26.07228309 6.69732734 31.01937254 4.6875 36.1875 C2.66448469 39.3344127 1.3552948 41.35291906 -2.2578125 42.578125 C-14.16489867 44.58967634 -25.98690706 43.45491139 -38 42.8125 C-38 27.6325 -38 12.4525 -38 -3.1875 C-31.8434375 -3.496875 -31.8434375 -3.496875 -25.5625 -3.8125 C-24.28705322 -3.88291504 -23.01160645 -3.95333008 -21.69750977 -4.02587891 C-6.44439473 -4.69903782 -6.44439473 -4.69903782 0 0 Z M-25 7.8125 C-25 9.7925 -25 11.7725 -25 13.8125 C-23.04174127 13.83944851 -21.08337774 13.85887218 -19.125 13.875 C-17.48917969 13.89240234 -17.48917969 13.89240234 -15.8203125 13.91015625 C-13.04822454 14.00994303 -13.04822454 14.00994303 -11 12.8125 C-11.33 11.1625 -11.66 9.5125 -12 7.8125 C-16.29 7.8125 -20.58 7.8125 -25 7.8125 Z M-25 24.8125 C-25 27.4525 -25 30.0925 -25 32.8125 C-22.35409986 32.83934679 -19.70846904 32.85926357 -17.0625 32.875 C-16.30775391 32.88337891 -15.55300781 32.89175781 -14.77539062 32.90039062 C-12.85005687 32.90902441 -10.92464419 32.86474333 -9 32.8125 C-8.67 32.4825 -8.34 32.1525 -8 31.8125 C-8 29.5025 -8 27.1925 -8 24.8125 C-13.61 24.8125 -19.22 24.8125 -25 24.8125 Z " fill="#0A2F1F" transform="translate(530,135.1875)"/>
<path d="M0 0 C5.18551388 5.46929822 7.13145592 12.69196556 7.4453125 20.09375 C7.11224927 27.34428031 5.75881433 33.51359907 0.3203125 38.59375 C-7.03510419 44.24664709 -14.95889987 44.26791828 -23.9296875 43.59375 C-30.1778318 42.57250799 -33.83454268 40.381584 -37.73828125 35.41015625 C-42.31564143 28.43155794 -42.80388686 19.78261479 -41.2421875 11.65625 C-39.79677349 6.42978609 -37.41500177 2.83726893 -33.2421875 -0.65625 C-23.5474506 -5.7779978 -9.24660432 -6.7384161 0 0 Z M-25.9296875 9.59375 C-29.28995912 14.55522488 -28.58001562 20.88924136 -27.9296875 26.59375 C-26.77818258 30.01763964 -26.09680711 30.42023654 -22.9296875 32.59375 C-19.07638304 33.41987075 -15.78299196 33.41987075 -11.9296875 32.59375 C-8.4249328 30.21717851 -8.4249328 30.21717851 -6.9296875 26.59375 C-6.23503478 21.10530575 -5.88839538 15.90451863 -8.1953125 10.78515625 C-10.68714487 7.63669237 -12.74395421 7.34201709 -16.57421875 6.6796875 C-20.488863 6.53686466 -22.58841097 7.54807049 -25.9296875 9.59375 Z " fill="#072E1F" transform="translate(370.9296875,135.40625)"/>
<path d="M0 0 C0.33 0.66 0.66 1.32 1 2 C1.66 2 2.32 2 3 2 C3 1.34 3 0.68 3 0 C18.07317073 2.07317073 18.07317073 2.07317073 23 7 C23.66666667 9 24.33333333 11 25 13 C25.66 13.66 26.32 14.32 27 15 C27.70525602 21.63123845 28.04702384 28.39642853 24 34 C23.01 34.495 23.01 34.495 22 35 C21.67 35.99 21.34 36.98 21 38 C20.34 38 19.68 38 19 38 C18.67 38.99 18.34 39.98 18 41 C13.50687433 43.91800745 8.23879398 44.27684684 3 44 C-4.54366678 41.56769622 -9.82966436 36.15194644 -13.4375 29.25 C-14.64376248 22.28048342 -14.12469894 16.12599753 -10.3125 10.0625 C-7.60758045 6.40367163 -4.90535361 4.27055442 -1 2 C-0.67 1.34 -0.34 0.68 0 0 Z " fill="#0A301E" transform="translate(65,141)"/>
<path d="M0 0 C1.97909398 -0.02686553 3.95828971 -0.04633375 5.9375 -0.0625 C7.03964844 -0.07410156 8.14179688 -0.08570313 9.27734375 -0.09765625 C12 0 12 0 13 1 C13.23363881 2.84891946 13.41303635 4.70488031 13.5625 6.5625 C13.64628906 7.57441406 13.73007812 8.58632812 13.81640625 9.62890625 C13.87699219 10.41136719 13.93757813 11.19382813 14 12 C14.77085937 11.21753906 15.54171875 10.43507812 16.3359375 9.62890625 C17.34882573 8.60663943 18.36185384 7.58451119 19.375 6.5625 C19.88289063 6.04623047 20.39078125 5.52996094 20.9140625 4.99804688 C25.84504781 0.03462087 25.84504781 0.03462087 30.2578125 -0.09765625 C32.17207031 -0.08025391 32.17207031 -0.08025391 34.125 -0.0625 C35.40632813 -0.05347656 36.68765625 -0.04445312 38.0078125 -0.03515625 C39.48894531 -0.01775391 39.48894531 -0.01775391 41 0 C41 3 41 3 39.43945312 4.90112305 C38.72724609 5.59761963 38.01503906 6.29411621 37.28125 7.01171875 C36.13076172 8.14770508 36.13076172 8.14770508 34.95703125 9.30664062 C34.14621094 10.09232422 33.33539063 10.87800781 32.5 11.6875 C31.68917969 12.48478516 30.87835938 13.28207031 30.04296875 14.10351562 C28.03517797 16.0758748 26.0207313 18.04091492 24 20 C28.42743873 26.16920017 33.28353007 31.63932294 38.58398438 37.0625 C39.14021484 37.64515625 39.69644531 38.2278125 40.26953125 38.828125 C40.77073486 39.3427832 41.27193848 39.85744141 41.78833008 40.38769531 C43.17305357 42.23027318 43.5887625 43.75023519 44 46 C31.90930843 47.93252857 31.90930843 47.93252857 27.17626953 44.78857422 C23.82148207 41.75109254 20.9999984 38.28362661 18.31762695 34.64746094 C16.70263029 32.62819144 14.82834126 30.82834126 13 29 C13 34.61 13 40.22 13 46 C8.71 46 4.42 46 0 46 C-0.64901486 34.76972504 -1.10361243 23.56325466 -1.125 12.3125 C-1.12951172 11.31532959 -1.13402344 10.31815918 -1.13867188 9.29077148 C-1.13673828 8.36594971 -1.13480469 7.44112793 -1.1328125 6.48828125 C-1.13168457 5.66884033 -1.13055664 4.84939941 -1.12939453 4.00512695 C-1 2 -1 2 0 0 Z " fill="#082E1F" transform="translate(388,132)"/>
<path d="M0 0 C0.94974277 4.38816333 1.45568719 8.72002409 -1.06494141 12.66796875 C-3.94412147 16.2134822 -7.21203559 19.37698806 -10.50390625 22.53564453 C-12.4767094 24.46659644 -14.27368569 26.52391423 -16.0625 28.625 C-17.98068034 30.86043663 -19.90727497 32.90727497 -22 35 C-14.74 35.33 -7.48 35.66 0 36 C0 39.3 0 42.6 0 46 C-9.37091144 46.87264935 -18.53545555 47.05376023 -27.9375 46.625 C-28.91477051 46.58189697 -29.89204102 46.53879395 -30.89892578 46.49438477 C-37.86705855 46.13294145 -37.86705855 46.13294145 -39 45 C-39.83824453 40.47347956 -39.79021926 38.2336002 -37.2734375 34.3046875 C-33.14383306 29.21008958 -28.67333407 24.46716594 -23.921875 19.94921875 C-21.43778859 17.42978965 -19.24023817 14.73849804 -17 12 C-17.63091553 11.97494385 -18.26183105 11.9498877 -18.91186523 11.92407227 C-21.75396825 11.80845863 -24.59571083 11.68557684 -27.4375 11.5625 C-28.43072266 11.52318359 -29.42394531 11.48386719 -30.44726562 11.44335938 C-31.39150391 11.40146484 -32.33574219 11.35957031 -33.30859375 11.31640625 C-34.18314209 11.27974854 -35.05769043 11.24309082 -35.95874023 11.20532227 C-38 11 -38 11 -39 10 C-39.0979057 8.50261876 -39.12974864 7.00057108 -39.125 5.5 C-39.12757813 4.6853125 -39.13015625 3.870625 -39.1328125 3.03125 C-39 1 -39 1 -38 0 C-34.66188144 -0.39292392 -31.29434122 -0.47694476 -27.9375 -0.625 C-26.45612549 -0.69255493 -26.45612549 -0.69255493 -24.94482422 -0.76147461 C-16.55756808 -1.08771351 -8.35529473 -0.77807186 0 0 Z " fill="#092E1F" transform="translate(608,132)"/>
<path d="M0 0 C1.77206192 0.00015919 3.54412846 0.00585754 5.31616211 0.01586914 C6.24698105 0.01728409 7.17779999 0.01869904 8.13682556 0.02015686 C11.12241777 0.02577367 14.10793615 0.03832899 17.09350586 0.05102539 C19.11238499 0.05603823 21.13126529 0.06060151 23.15014648 0.06469727 C28.11046158 0.07574856 33.07072118 0.09302444 38.03100586 0.11352539 C38.03100586 2.75352539 38.03100586 5.39352539 38.03100586 8.11352539 C37.04100586 8.44352539 36.05100586 8.77352539 35.03100586 9.11352539 C35.68685775 12.72344919 35.68685775 12.72344919 37.03100586 16.11352539 C38.10741333 15.93285522 38.10741333 15.93285522 39.20556641 15.74853516 C87.22967535 7.71286014 87.22967535 7.71286014 92.03100586 10.11352539 C91.70100586 11.43352539 91.37100586 12.75352539 91.03100586 14.11352539 C89.85538086 13.83508789 89.85538086 13.83508789 88.65600586 13.55102539 C86.0601081 12.85390273 86.0601081 12.85390273 84.03100586 14.11352539 C83.04100586 13.78352539 82.05100586 13.45352539 81.03100586 13.11352539 C79.46947366 13.32172968 77.9088767 13.54045481 76.35522461 13.80102539 C73.4176026 14.19599978 70.49064174 14.32800277 67.53100586 14.48852539 C51.59525294 15.51945934 51.59525294 15.51945934 38.03100586 23.11352539 C38.52600586 24.10352539 38.52600586 24.10352539 39.03100586 25.11352539 C39.20899261 27.42151752 39.29886233 29.73661102 39.34350586 32.05102539 C39.38088867 33.29754883 39.41827148 34.54407227 39.45678711 35.82836914 C39.03100586 40.11352539 39.03100586 40.11352539 35.03100586 51.11352539 C60.44100586 50.78352539 85.85100586 50.45352539 112.03100586 50.11352539 C111.04100586 48.13352539 110.05100586 46.15352539 109.03100586 44.11352539 C108.33744163 41.78804532 107.66951374 39.45472094 107.03100586 37.11352539 C106.47413086 35.78321289 106.47413086 35.78321289 105.90600586 34.42602539 C105.03100586 32.11352539 105.03100586 32.11352539 105.03100586 28.11352539 C103.71100586 27.78352539 102.39100586 27.45352539 101.03100586 27.11352539 C100.70100586 25.46352539 100.37100586 23.81352539 100.03100586 22.11352539 C105.64463686 26.0685836 107.58202754 29.80669705 110.03100586 36.11352539 C110.47831055 37.12801758 110.92561523 38.14250977 111.38647461 39.18774414 C111.84666992 40.23575195 112.30686523 41.28375977 112.78100586 42.36352539 C113.20897461 43.33805664 113.63694336 44.31258789 114.07788086 45.31665039 C115.03100586 48.11352539 115.03100586 48.11352539 115.03100586 53.11352539 C86.65100586 53.11352539 58.27100586 53.11352539 29.03100586 53.11352539 C29.03100586 52.45352539 29.03100586 51.79352539 29.03100586 51.11352539 C29.69100586 51.11352539 30.35100586 51.11352539 31.03100586 51.11352539 C31.13413086 50.51540039 31.23725586 49.91727539 31.34350586 49.30102539 C32.13012442 46.79814815 33.16646417 45.90037784 35.03100586 44.11352539 C36.14322541 40.77686674 36.23354365 38.12572877 36.28100586 34.61352539 C36.31967773 32.89649414 36.31967773 32.89649414 36.35913086 31.14477539 C35.99561435 27.78657525 35.53834956 27.1828774 33.03100586 25.11352539 C32.72163086 24.16477539 32.41225586 23.21602539 32.09350586 22.23852539 C30.92968841 18.8155329 29.34231058 16.85819974 27.03100586 14.11352539 C26.76288086 13.37102539 26.49475586 12.62852539 26.21850586 11.86352539 C25.05154072 9.71317916 25.05154072 9.71317916 21.65600586 9.36352539 C19.11899959 9.18855944 16.57403828 9.11352539 14.03100586 9.11352539 C13.70100586 10.43352539 13.37100586 11.75352539 13.03100586 13.11352539 C13.03100586 11.46352539 13.03100586 9.81352539 13.03100586 8.11352539 C12.04100586 8.11352539 11.05100586 8.11352539 10.03100586 8.11352539 C10.37131836 9.22727539 10.37131836 9.22727539 10.71850586 10.36352539 C11.03100586 13.11352539 11.03100586 13.11352539 9.78100586 15.42602539 C8.03100586 17.11352539 8.03100586 17.11352539 5.03100586 17.11352539 C4.8234668 16.55922852 4.61592773 16.00493164 4.40209961 15.43383789 C2.66555025 11.06744091 2.66555025 11.06744091 -0.79321289 8.13696289 C-2.91910562 7.52035607 -2.91910562 7.52035607 -5.96899414 7.11352539 C-4.93053715 0.14102847 -4.93053715 0.14102847 0 0 Z " fill="#82CC2A" transform="translate(54.968994140625,127.886474609375)"/>
<path d="M0 0 C1.093125 0.00257813 2.18625 0.00515625 3.3125 0.0078125 C4.405625 0.00523437 5.49875 0.00265625 6.625 0 C9.3125 0.1328125 9.3125 0.1328125 10.3125 1.1328125 C10.40101529 3.72640572 10.42775945 6.29320941 10.41015625 8.88671875 C10.4087413 9.66216537 10.40732635 10.437612 10.40586853 11.23655701 C10.40025345 13.72284744 10.38769846 16.2090491 10.375 18.6953125 C10.36998694 20.37695183 10.3654237 22.05859256 10.36132812 23.74023438 C10.35112832 27.87115579 10.33155605 32.00188432 10.3125 36.1328125 C18.5625 36.1328125 26.8125 36.1328125 35.3125 36.1328125 C35.3125 39.4328125 35.3125 42.7328125 35.3125 46.1328125 C31.25053847 46.33338635 27.18794122 46.51577173 23.125 46.6953125 C21.99384766 46.75138672 20.86269531 46.80746094 19.69726562 46.86523438 C11.81953478 47.20188954 4.15785393 46.91174349 -3.6875 46.1328125 C-3.71277062 39.74244019 -3.73033317 33.35208067 -3.74243164 26.96166992 C-3.74747308 24.78588377 -3.75430607 22.61010103 -3.76293945 20.43432617 C-3.77501338 17.31428183 -3.78073005 14.19428212 -3.78515625 11.07421875 C-3.79031754 10.09505997 -3.79547882 9.11590118 -3.80079651 8.10707092 C-3.80087204 7.20621262 -3.80094757 6.30535431 -3.80102539 5.37719727 C-3.803246 4.57999771 -3.80546661 3.78279816 -3.80775452 2.96144104 C-3.61112875 -0.02851301 -3.01293662 0.14889512 0 0 Z " fill="#082E1F" transform="translate(283.6875,131.8671875)"/>
<path d="M0 0 C1.65322266 0.01740234 1.65322266 0.01740234 3.33984375 0.03515625 C4.99693359 0.04869141 4.99693359 0.04869141 6.6875 0.0625 C7.54214844 0.07410156 8.39679688 0.08570313 9.27734375 0.09765625 C9.47611213 4.40971312 9.65930561 8.72230069 9.83984375 13.03515625 C9.89591797 14.24751953 9.95199219 15.45988281 10.00976562 16.70898438 C10.05810547 17.89814453 10.10644531 19.08730469 10.15625 20.3125 C10.20338135 21.396521 10.2505127 22.48054199 10.29907227 23.59741211 C10.27312052 27.77797522 9.73901861 31.94258252 9.27734375 36.09765625 C17.85734375 36.09765625 26.43734375 36.09765625 35.27734375 36.09765625 C35.27734375 39.39765625 35.27734375 42.69765625 35.27734375 46.09765625 C32.04270292 47.71497666 28.53025924 47.09640822 24.98828125 46.9765625 C24.16985748 46.95295151 23.35143372 46.92934052 22.50820923 46.90501404 C19.88941315 46.82832681 17.27090904 46.74432442 14.65234375 46.66015625 C12.87892063 46.60694062 11.10548317 46.55420018 9.33203125 46.50195312 C4.98028321 46.37270485 0.62878314 46.23689473 -3.72265625 46.09765625 C-3.74792687 39.70728394 -3.76548942 33.31692442 -3.77758789 26.92651367 C-3.78262933 24.75072752 -3.78946232 22.57494478 -3.7980957 20.39916992 C-3.81016963 17.27912558 -3.8158863 14.15912587 -3.8203125 11.0390625 C-3.82547379 10.05990372 -3.83063507 9.08074493 -3.83595276 8.07191467 C-3.83602829 7.17105637 -3.83610382 6.27019806 -3.83618164 5.34204102 C-3.83840225 4.54484146 -3.84062286 3.74764191 -3.84291077 2.92628479 C-3.64483219 -0.08576123 -3.03841518 0.10898189 0 0 Z " fill="#0A2F1F" transform="translate(446.72265625,131.90234375)"/>
<path d="M0 0 C3.52091482 2.54150542 5.49651864 4.4073853 6.390625 8.74609375 C6.55175217 15.27980045 5.7037402 19.64176536 1.15625 24.5390625 C-2.99298975 26.72287289 -7.68924914 27.50761553 -12.25390625 26.2109375 C-13.9435788 25.4791048 -15.58507271 24.63857469 -17.21875 23.7890625 C-19.96953884 22.87213289 -21.57823913 22.68020167 -24.40625 22.7265625 C-25.664375 22.7471875 -26.9225 22.7678125 -28.21875 22.7890625 C-28.21875 22.4590625 -28.21875 22.1290625 -28.21875 21.7890625 C-26.56875 21.7890625 -24.91875 21.7890625 -23.21875 21.7890625 C-23.24195313 20.92023438 -23.26515625 20.05140625 -23.2890625 19.15625 C-23.31613281 17.42761719 -23.31613281 17.42761719 -23.34375 15.6640625 C-23.36695313 14.52710938 -23.39015625 13.39015625 -23.4140625 12.21875 C-23.21323778 8.69226788 -22.58686111 6.03655115 -21.21875 2.7890625 C-15.06519842 -2.13377876 -7.06665697 -3.85680222 0 0 Z " fill="#0A311F" transform="translate(246.21875,158.2109375)"/>
<path d="M0 0 C12.12008935 0.17265085 22.05290609 6.68810403 30.5 14.9375 C32.43582969 16.94085864 34.00060173 18.84068993 35.625 21.125 C38.29228219 24.04233989 40.82507299 24.50866929 44.625 25.3125 C44.66741723 27.64544775 44.66592937 29.97952567 44.625 32.3125 C43.625 33.3125 43.625 33.3125 41.49194336 33.42602539 C40.11727905 33.41817017 40.11727905 33.41817017 38.71484375 33.41015625 C37.72548828 33.40693359 36.73613281 33.40371094 35.71679688 33.40039062 C34.67587891 33.39201172 33.63496094 33.38363281 32.5625 33.375 C31.51771484 33.37048828 30.47292969 33.36597656 29.39648438 33.36132812 C26.8059334 33.34949913 24.21549441 33.33301689 21.625 33.3125 C21.78291016 32.54736084 21.94082031 31.78222168 22.10351562 30.99389648 C23.15576986 25.58335889 24.39263593 19.10295198 21.30859375 14.234375 C17.47479594 10.7007627 13.89935806 9.2231041 8.625 9.3125 C2.0355993 10.6483836 2.0355993 10.6483836 -3.375 14.3125 C-3.83474503 16.24151141 -3.83474503 16.24151141 -4.0078125 18.4453125 C-4.09160156 19.25097656 -4.17539063 20.05664062 -4.26171875 20.88671875 C-4.34035156 21.72847656 -4.41898438 22.57023437 -4.5 23.4375 C-4.58636719 24.28699219 -4.67273438 25.13648438 -4.76171875 26.01171875 C-4.97402557 28.11119727 -5.17553603 30.21176242 -5.375 32.3125 C-7.355 32.3125 -9.335 32.3125 -11.375 32.3125 C-11.05372258 26.28577874 -10.51186353 21.0613146 -8.13671875 15.5 C-6.81226146 11.69643035 -6.37188017 7.72923031 -5.8046875 3.75390625 C-5.10106343 -0.2439578 -3.7788942 0.11324762 0 0 Z " fill="#6CA33F" transform="translate(228.375,147.6875)"/>
<path d="M0 0 C0 15.18 0 30.36 0 46 C-5 47 -5 47 -13 46 C-13 30.82 -13 15.64 -13 0 C-4 -1 -4 -1 0 0 Z " fill="#082E1E" transform="translate(559,132)"/>
<path d="M0 0 C0.66 0 1.32 0 2 0 C3.3513921 2.845036 4.21630331 5.00209647 3.53515625 8.14453125 C1.50618812 13.74690594 1.50618812 13.74690594 -1 15 C-0.62875 16.0725 -0.2575 17.145 0.125 18.25 C1 22 1 22 0.25 24.375 C-1 26 -1 26 -3 27 C-6.375 27.375 -6.375 27.375 -10 27 C-12.5 24.8125 -12.5 24.8125 -14 22 C-13.84077523 18.57666749 -13.4368763 17.4368763 -11 15 C-16.28 15 -21.56 15 -27 15 C-26.01 16.485 -26.01 16.485 -25 18 C-25.1875 21.5625 -25.1875 21.5625 -26 25 C-29.49124017 27.32749345 -30.89222251 27.50299316 -35 27 C-37.4375 25.4375 -37.4375 25.4375 -39 23 C-38.75 19.4375 -38.75 19.4375 -38 16 C-38 15.01 -38 14.02 -38 13 C-35.69 12.34 -33.38 11.68 -31 11 C-31.99 10.67 -32.98 10.34 -34 10 C-34 9.34 -34 8.68 -34 8 C-31.23749964 6.61874982 -29.05268901 6.80920694 -26 7 C-25.34 7.66 -24.68 8.32 -24 9 C-24 8.01 -24 7.02 -24 6 C-22.5459375 6.0309375 -22.5459375 6.0309375 -21.0625 6.0625 C-18.12534105 6.35618499 -18.12534105 6.35618499 -17 5 C-15.33382885 4.95936168 -13.66611905 4.957279 -12 5 C-12.99 6.485 -12.99 6.485 -14 8 C-9.71 8.33 -5.42 8.66 -1 9 C-0.67 6.03 -0.34 3.06 0 0 Z " fill="#235D42" transform="translate(213,167)"/>
<path d="M0 0 C1.97909398 -0.02686553 3.95828971 -0.04633375 5.9375 -0.0625 C7.03964844 -0.07410156 8.14179688 -0.08570313 9.27734375 -0.09765625 C12 0 12 0 13 1 C13.23363881 2.84891946 13.41303635 4.70488031 13.5625 6.5625 C13.64628906 7.57441406 13.73007812 8.58632812 13.81640625 9.62890625 C13.87699219 10.41136719 13.93757813 11.19382813 14 12 C14.77085937 11.21753906 15.54171875 10.43507812 16.3359375 9.62890625 C17.34882573 8.60663943 18.36185384 7.58451119 19.375 6.5625 C19.88289063 6.04623047 20.39078125 5.52996094 20.9140625 4.99804688 C25.84504781 0.03462087 25.84504781 0.03462087 30.2578125 -0.09765625 C32.17207031 -0.08025391 32.17207031 -0.08025391 34.125 -0.0625 C35.40632813 -0.05347656 36.68765625 -0.04445312 38.0078125 -0.03515625 C39.48894531 -0.01775391 39.48894531 -0.01775391 41 0 C41 3 41 3 39.43945312 4.90112305 C38.72724609 5.59761963 38.01503906 6.29411621 37.28125 7.01171875 C36.13076172 8.14770508 36.13076172 8.14770508 34.95703125 9.30664062 C34.14621094 10.09232422 33.33539063 10.87800781 32.5 11.6875 C31.68917969 12.48478516 30.87835938 13.28207031 30.04296875 14.10351562 C28.03517797 16.0758748 26.0207313 18.04091492 24 20 C28.42743873 26.16920017 33.28353007 31.63932294 38.58398438 37.0625 C39.14021484 37.64515625 39.69644531 38.2278125 40.26953125 38.828125 C40.77073486 39.3427832 41.27193848 39.85744141 41.78833008 40.38769531 C43.17305357 42.23027318 43.5887625 43.75023519 44 46 C42.25 45.875 42.25 45.875 40 45 C38.59886384 43.04690112 37.26660533 41.04291182 36 39 C35.4225 38.4225 34.845 37.845 34.25 37.25 C33.8375 36.8375 33.425 36.425 33 36 C33 35.34 33 34.68 33 34 C32.34 34 31.68 34 31 34 C29.72173907 32.52508354 28.44841039 31.04463706 27.23046875 29.51953125 C25.98939209 27.93276749 25.98939209 27.93276749 24.375 26.375 C22.62752175 24.62752175 21.21383165 23.17211979 20 21 C20.8125 18.25 20.8125 18.25 22 16 C22.99 16 23.98 16 25 16 C25 15.34 25 14.68 25 14 C26.609375 12.4140625 26.609375 12.4140625 28.75 10.625 C31.6243732 8.18382134 34.38543992 5.72350008 37 3 C33.83471708 2.40650945 31.15229045 2.27404749 28 3 C24.16911347 6.09193379 21.07705428 9.80756211 18.90234375 14.234375 C18 16 18 16 16 17 C14.02 17 12.04 17 10 17 C10 12.05 10 7.1 10 2 C7.36 2 4.72 2 2 2 C2 16.19 2 30.38 2 45 C1.34 45 0.68 45 0 45 C-0.66713526 34.12331271 -1.10433378 23.27385011 -1.125 12.375 C-1.12951172 11.3739624 -1.13402344 10.3729248 -1.13867188 9.34155273 C-1.13673828 8.41157471 -1.13480469 7.48159668 -1.1328125 6.5234375 C-1.13168457 5.69763184 -1.13055664 4.87182617 -1.12939453 4.02099609 C-1 2 -1 2 0 0 Z " fill="#153521" transform="translate(388,132)"/>
<path d="M0 0 C2 2.6875 2 2.6875 3 6 C2.1875 9.0625 2.1875 9.0625 1 12 C0.95392349 13.66602963 0.9466266 15.33418817 1 17 C0.10796875 16.98839844 -0.7840625 16.97679687 -1.703125 16.96484375 C-2.87359375 16.95582031 -4.0440625 16.94679687 -5.25 16.9375 C-6.41015625 16.92589844 -7.5703125 16.91429687 -8.765625 16.90234375 C-11.4339217 16.98290826 -13.45440679 17.35203082 -16 18 C-18.25 17.0625 -18.25 17.0625 -20 16 C-19.67 16.33 -19.34 16.66 -19 17 C-18.28636407 18.67661452 -17.60311732 20.36624941 -16.9375 22.0625 C-16.57527344 22.98160156 -16.21304688 23.90070313 -15.83984375 24.84765625 C-15.42412109 25.91306641 -15.42412109 25.91306641 -15 27 C-15.66 27.66 -16.32 28.32 -17 29 C-17.25652344 28.33613281 -17.51304687 27.67226562 -17.77734375 26.98828125 C-20.83600182 19.93380052 -23.93843517 16.92422848 -31 14 C-32.010625 13.566875 -33.02125 13.13375 -34.0625 12.6875 C-34.701875 12.460625 -35.34125 12.23375 -36 12 C-34.125 7.125 -34.125 7.125 -33 6 C-26.2064733 6.11918468 -21.83163634 8.15551356 -17 13 C-17 13.66 -17 14.32 -17 15 C-13.7 14.67 -10.4 14.34 -7 14 C-7.825 13.46375 -8.65 12.9275 -9.5 12.375 C-12 10 -12 10 -12.5 7 C-11.95698679 3.74192075 -11.31873852 2.31873852 -9 0 C-5.38597653 -1.20467449 -3.62816543 -1.1338017 0 0 Z " fill="#296245" transform="translate(182,133)"/>
<path d="M0 0 C5.18551388 5.46929822 7.13145592 12.69196556 7.4453125 20.09375 C7.11224927 27.34428031 5.75881433 33.51359907 0.3203125 38.59375 C-6.62203263 43.94855341 -13.49453813 43.86831182 -21.9296875 43.59375 C-21.9296875 42.93375 -21.9296875 42.27375 -21.9296875 41.59375 C-21.24003906 41.56796875 -20.55039062 41.5421875 -19.83984375 41.515625 C-12.47828419 41.0713059 -5.48332975 40.03275863 0.0078125 34.71875 C4.22622782 26.28191936 4.49118469 16.34882181 1.8203125 7.34375 C0.93905561 4.7391463 0.50267621 3.85282164 -1.87890625 2.42578125 C-2.55566406 2.15121094 -3.23242188 1.87664062 -3.9296875 1.59375 C-5.198125 1.0678125 -5.198125 1.0678125 -6.4921875 0.53125 C-14.95664994 -1.77723976 -22.47584331 -1.62515487 -30.9296875 0.59375 C-30.9296875 1.25375 -30.9296875 1.91375 -30.9296875 2.59375 C-31.7340625 3.356875 -32.5384375 4.12 -33.3671875 4.90625 C-36.00267287 7.67029563 -36.61154817 8.88212448 -36.9296875 12.59375 C-37.5896875 12.59375 -38.2496875 12.59375 -38.9296875 12.59375 C-38.81482325 14.96962624 -38.68810594 17.34390171 -38.5546875 19.71875 C-38.50828125 20.71648437 -38.50828125 20.71648437 -38.4609375 21.734375 C-38.21078189 25.98702043 -37.63742412 29.67873475 -35.9296875 33.59375 C-34.9396875 34.25375 -33.9496875 34.91375 -32.9296875 35.59375 C-32.9296875 36.25375 -32.9296875 36.91375 -32.9296875 37.59375 C-32.2078125 37.8825 -31.4859375 38.17125 -30.7421875 38.46875 C-28.13802083 39.51041667 -25.53385417 40.55208333 -22.9296875 41.59375 C-22.9296875 41.92375 -22.9296875 42.25375 -22.9296875 42.59375 C-28.89075324 42.3845898 -32.14146585 41.42995711 -36.45703125 37.2421875 C-41.77697195 31.28724062 -41.9296875 24.28551424 -41.9296875 16.59375 C-41.24530621 9.38635956 -38.90162852 4.08188667 -33.2421875 -0.65625 C-23.5474506 -5.7779978 -9.24660432 -6.7384161 0 0 Z " fill="#163622" transform="translate(370.9296875,135.40625)"/>
<path d="M0 0 C2.9375 2.5625 2.9375 2.5625 5 5 C4.01 5.495 4.01 5.495 3 6 C3.05800781 6.67546875 3.11601562 7.3509375 3.17578125 8.046875 C3.54495913 15.34604905 3.54495913 15.34604905 0.8125 18.625 C-2.24108975 20.1178661 -3.66783777 20.58312839 -7 20 C-11.66666667 17.66666667 -11.66666667 17.66666667 -13 15 C-13.03023585 12.72367276 -12.93351618 10.46577282 -12.83984375 8.19140625 C-12.84066515 5.7053771 -12.84066515 5.7053771 -15 3 C-15 3.66 -15 4.32 -15 5 C-15.99 5.33 -16.98 5.66 -18 6 C-18.14198847 13.0553903 -18.14198847 13.0553903 -17.4375 20.0625 C-17.293125 21.031875 -17.14875 22.00125 -17 23 C-18 24 -18 24 -19.84765625 24.09765625 C-21.8984375 24.06510417 -23.94921875 24.03255208 -26 24 C-26 23.67 -26 23.34 -26 23 C-24.35 23 -22.7 23 -21 23 C-21.02320313 22.13117188 -21.04640625 21.26234375 -21.0703125 20.3671875 C-21.09738281 18.63855469 -21.09738281 18.63855469 -21.125 16.875 C-21.14820313 15.73804688 -21.17140625 14.60109375 -21.1953125 13.4296875 C-20.99448778 9.90320538 -20.36811111 7.24748865 -19 4 C-13.46365567 -0.42907546 -6.80635278 -1.89065355 0 0 Z " fill="#0B331C" transform="translate(244,157)"/>
<path d="M0 0 C1.11342522 -0.0049926 1.11342522 -0.0049926 2.24934387 -0.01008606 C3.8150674 -0.01512747 5.38080157 -0.01749525 6.9465332 -0.01733398 C9.30764109 -0.01950878 11.66827215 -0.03766172 14.02929688 -0.05664062 C36.04716862 -0.13882612 36.04716862 -0.13882612 45.14453125 5.16796875 C47.08203125 8.35546875 47.08203125 8.35546875 48.14453125 11.16796875 C44.97583213 12.75231831 42.03618623 11.25273432 38.76953125 10.35546875 C27.57141629 7.29641762 16.40125579 5.87944247 4.83203125 5.10546875 C-8.72539334 4.16753372 -8.72539334 4.16753372 -14.85546875 3.16796875 C-14.52546875 2.50796875 -14.19546875 1.84796875 -13.85546875 1.16796875 C-9.26936814 0.0720592 -4.69133533 0.0074569 0 0 Z " fill="#63A21B" transform="translate(113.85546875,155.83203125)"/>
<path d="M0 0 C0 15.18 0 30.36 0 46 C-1.32 45.34 -2.64 44.68 -4 44 C-3.67 30.47 -3.34 16.94 -3 3 C-5.64 2.67 -8.28 2.34 -11 2 C-10.8453125 3.3096875 -10.690625 4.619375 -10.53125 5.96875 C-9.70747871 14.1948605 -9.6415715 22.4666725 -9.44775391 30.7265625 C-9.39615826 32.86991186 -9.3389557 35.01305781 -9.28125 37.15625 C-9.25095703 38.42275391 -9.22066406 39.68925781 -9.18945312 40.99414062 C-9.20104549 43.92296376 -9.20104549 43.92296376 -8 46 C-9.65 46 -11.3 46 -13 46 C-13 30.82 -13 15.64 -13 0 C-4 -1 -4 -1 0 0 Z " fill="#123221" transform="translate(559,132)"/>
<path d="M0 0 C3.5178999 2.8589273 6.80097955 5.58510936 9.5 9.25 C12.63505268 12.69855795 14.51867915 13.12130964 19 14 C19.04241723 16.33294775 19.04092937 18.66702567 19 21 C18 22 18 22 16.05053711 22.11352539 C15.2178833 22.10828857 14.38522949 22.10305176 13.52734375 22.09765625 C12.62822266 22.09443359 11.72910156 22.09121094 10.80273438 22.08789062 C9.85720703 22.07951172 8.91167969 22.07113281 7.9375 22.0625 C6.98810547 22.05798828 6.03871094 22.05347656 5.06054688 22.04882812 C2.70696935 22.0370011 0.35351523 22.02052025 -2 22 C-1.86145912 18.70798357 -1.71292976 15.41649291 -1.5625 12.125 C-1.50352539 10.71927734 -1.50352539 10.71927734 -1.44335938 9.28515625 C-1.40146484 8.38925781 -1.35957031 7.49335938 -1.31640625 6.5703125 C-1.27974854 5.74289551 -1.24309082 4.91547852 -1.20532227 4.06298828 C-1 2 -1 2 0 0 Z " fill="#86C53B" transform="translate(254,159)"/>
<path d="M0 0 C4.81826218 0.84530916 6.34029694 1.93125503 9.5625 5.625 C10.29840357 9.74605997 9.99452533 11.79695144 8.0625 15.5 C4.7093501 18.35017741 1.92022265 18.92822126 -2.4375 18.625 C-5.40420062 17.39962366 -6.88592716 16.35207328 -8.8125 13.8125 C-9.71220027 10.66354906 -9.39579149 8.75541888 -8.4375 5.625 C-5.80443058 2.06261196 -4.38830836 0.79787425 0 0 Z " fill="#82CB2B" transform="translate(210.4375,128.375)"/>
<path d="M0 0 C1.093125 0.00257813 2.18625 0.00515625 3.3125 0.0078125 C4.405625 0.00523437 5.49875 0.00265625 6.625 0 C9.3125 0.1328125 9.3125 0.1328125 10.3125 1.1328125 C10.40105161 3.7990728 10.42774673 6.43928364 10.41015625 9.10546875 C10.4087413 9.90311142 10.40732635 10.70075409 10.40586853 11.52256775 C10.40025316 14.08018685 10.38769812 16.63771968 10.375 19.1953125 C10.36998698 20.92512895 10.36542373 22.65494676 10.36132812 24.38476562 C10.35027875 28.63414803 10.33300386 32.88346562 10.3125 37.1328125 C9.3225 37.1328125 8.3325 37.1328125 7.3125 37.1328125 C7.3125 25.5828125 7.3125 14.0328125 7.3125 2.1328125 C5.0025 2.4628125 2.6925 2.7928125 0.3125 3.1328125 C-0.0175 16.6628125 -0.3475 30.1928125 -0.6875 44.1328125 C-2.1725 44.6278125 -2.1725 44.6278125 -3.6875 45.1328125 C-3.71277124 38.88485575 -3.73033344 32.63691209 -3.74243164 26.38891602 C-3.74747298 24.26163236 -3.75430591 22.13435219 -3.76293945 20.00708008 C-3.77501379 16.95653424 -3.78073014 13.90603405 -3.78515625 10.85546875 C-3.79031754 9.89818375 -3.79547882 8.94089874 -3.80079651 7.9546051 C-3.80087204 7.07376755 -3.80094757 6.19292999 -3.80102539 5.28540039 C-3.803246 4.50596573 -3.80546661 3.72653107 -3.80775452 2.92347717 C-3.60884066 -0.03847406 -2.98164286 0.14734863 0 0 Z " fill="#112F1B" transform="translate(283.6875,131.8671875)"/>
<path d="M0 0 C5.613631 3.95505821 7.55102168 7.69317166 10 14 C10.44730469 15.01449219 10.89460938 16.02898437 11.35546875 17.07421875 C11.81566406 18.12222656 12.27585937 19.17023438 12.75 20.25 C13.17796875 21.22453125 13.6059375 22.1990625 14.046875 23.203125 C15 26 15 26 15 31 C-12.39 31 -39.78 31 -68 31 C-67.67 29.68 -67.34 28.36 -67 27 C-66.34 26.67 -65.68 26.34 -65 26 C-65 26.99 -65 27.98 -65 29 C-39.59 28.67 -14.18 28.34 12 28 C11.01 26.02 10.02 24.04 9 22 C8.30643577 19.67451993 7.63850788 17.34119555 7 15 C6.62875 14.113125 6.2575 13.22625 5.875 12.3125 C5 10 5 10 5 6 C3.68 5.67 2.36 5.34 1 5 C0.505 2.525 0.505 2.525 0 0 Z " fill="#8EC34E" transform="translate(155,150)"/>
<path d="M0 0 C13.86 0 27.72 0 42 0 C42 2.64 42 5.28 42 8 C41.01 8.33 40.02 8.66 39 9 C39.65585189 12.60992379 39.65585189 12.60992379 41 16 C42.07640747 15.81932983 42.07640747 15.81932983 43.17456055 15.63500977 C91.19866949 7.59933474 91.19866949 7.59933474 96 10 C95.67 11.32 95.34 12.64 95 14 C93.824375 13.7215625 93.824375 13.7215625 92.625 13.4375 C90.02910225 12.74037734 90.02910225 12.74037734 88 14 C87.01 13.67 86.02 13.34 85 13 C83.4384678 13.20820429 81.87787084 13.42692942 80.32421875 13.6875 C77.38659674 14.08247439 74.45963589 14.21447738 71.5 14.375 C62.76255583 14.9630972 54.02970743 16.31945794 45.703125 19.1015625 C43 20 43 20 40.75 19.9375 C38.18988281 18.56600865 37.93247094 16.66420268 37 14 C36.34 13.67 35.68 13.34 35 13 C34.67 13.99 34.34 14.98 34 16 C33.34 15.01 32.68 14.02 32 13 C32.8345262 10.49642139 33.79371992 8.33214148 35 6 C36.65 6 38.3 6 40 6 C40 4.35 40 2.7 40 1 C26.8 1 13.6 1 0 1 C0 0.67 0 0.34 0 0 Z " fill="#90C743" transform="translate(51,128)"/>
<path d="M0 0 C0.99 0.66 1.98 1.32 3 2 C3.2578125 4.0234375 3.2578125 4.0234375 3.125 6.375 C2.96859531 9.49266684 3.10900537 11.99803349 4 15 C3.34 14.67 2.68 14.34 2 14 C1.01 17.96 0.02 21.92 -1 26 C-1.66 25.34 -2.32 24.68 -3 24 C-3 23.01 -3 22.02 -3 21 C-3.66 21 -4.32 21 -5 21 C-5.33 23.97 -5.66 26.94 -6 30 C-6.33 30 -6.66 30 -7 30 C-7 28.02 -7 26.04 -7 24 C-7.99 24.99 -8.98 25.98 -10 27 C-9.34 27.33 -8.68 27.66 -8 28 C-9.98 27.67 -11.96 27.34 -14 27 C-12.66902183 22.69843286 -11.00062707 18.81202643 -8.9375 14.8125 C-7.42292815 11.86852783 -6.04722531 9.14167593 -5 6 C-2.9375 5.3125 -2.9375 5.3125 -1 5 C-1.91523438 4.95101562 -2.83046875 4.90203125 -3.7734375 4.8515625 C-4.96195313 4.77679688 -6.15046875 4.70203125 -7.375 4.625 C-8.55835938 4.55539063 -9.74171875 4.48578125 -10.9609375 4.4140625 C-14 4 -14 4 -16 2 C-10.72 2 -5.44 2 0 2 C0 1.34 0 0.68 0 0 Z " fill="#23644A" transform="translate(218,146)"/>
<path d="M0 0 C3.407849 2.41389304 4.75297335 3.83897476 5.625 7.9375 C4.75697586 12.19081827 3.22341676 14.11949992 0 17 C-3.5625 17.625 -3.5625 17.625 -7 17 C-9.36497439 15.13291495 -10.66030715 13.67938569 -12 11 C-12.35173852 7.20122401 -12.52701444 4.85639847 -10.5 1.5625 C-7.02759567 -0.6077527 -3.92105015 -0.89291241 0 0 Z " fill="#7DC72B" transform="translate(76,155)"/>
<path d="M0 0 C3.0625 0.1875 3.0625 0.1875 5.0625 2.1875 C5.1875 4.8125 5.1875 4.8125 5.0625 7.1875 C6.0525 7.5175 7.0425 7.8475 8.0625 8.1875 C7.0725 9.6725 7.0725 9.6725 6.0625 11.1875 C6.3925 11.5175 6.7225 11.8475 7.0625 12.1875 C7.5251087 18.43271739 7.5251087 18.43271739 5.875 21.125 C3.40200907 22.57468434 1.88365488 22.61067323 -0.9375 22.1875 C-2.8125 21.125 -2.8125 21.125 -3.9375 19.1875 C-3.70561536 15.88314394 -3.42679359 13.16608719 -1.9375 10.1875 C-2.453125 9.81625 -2.96875 9.445 -3.5 9.0625 C-4.9375 7.1875 -4.9375 7.1875 -4.6875 4.0625 C-3.68914628 0.23547742 -3.68914628 0.23547742 0 0 Z " fill="#315F43" transform="translate(154.9375,112.8125)"/>
<path d="M0 0 C2.5 2.0625 2.5 2.0625 4 5 C4 8.83750808 3.81388154 11.03539965 1.3125 14 C-1.91133358 15.3940902 -3.67182488 15.04005473 -7 14 C-9.4375 12.375 -9.4375 12.375 -11 10 C-10.93913078 6.53045455 -10.6274029 4.08052722 -8.875 1.0625 C-5.77710642 -0.69297303 -3.47155466 -0.48723574 0 0 Z " fill="#265D41" transform="translate(195,121)"/>
<path d="M0 0 C2 2.6875 2 2.6875 3 6 C2.31603097 8.96386578 1.35147284 11.29705432 0 14 C-4.002247 14.31390173 -6.38328737 14.34116018 -9.9375 12.375 C-12 10 -12 10 -12.5 7 C-11.95698679 3.74192075 -11.31873852 2.31873852 -9 0 C-5.38597653 -1.20467449 -3.62816543 -1.1338017 0 0 Z " fill="#83CC2B" transform="translate(182,133)"/>
<path d="M0 0 C2.27076842 -0.02699725 4.54162821 -0.04639453 6.8125 -0.0625 C8.07707031 -0.07410156 9.34164062 -0.08570313 10.64453125 -0.09765625 C14 0 14 0 17 1 C18.1875 4.0625 18.1875 4.0625 19 7 C20.32 7 21.64 7 23 7 C23.33 8.65 23.66 10.3 24 12 C24.763125 12 25.52625 12 26.3125 12 C28.20833333 12 30.10416667 12 32 12 C30.35 13.65 28.7 15.3 27 17 C27.33 17.33 27.66 17.66 28 18 C28.52460614 26.00024363 28.97816314 33.83930635 25 41 C23.10295058 42.95980169 21.23942399 44.40752072 19 46 C18.67 45.34 18.34 44.68 18 44 C18.66 44 19.32 44 20 44 C20.103125 43.401875 20.20625 42.80375 20.3125 42.1875 C21.09911856 39.68462276 22.13545831 38.78685245 24 37 C25.11221955 33.66334135 25.20253779 31.01220338 25.25 27.5 C25.27578125 26.3553125 25.3015625 25.210625 25.328125 24.03125 C24.96460849 20.67304986 24.5073437 20.06935201 22 18 C21.5359375 16.576875 21.5359375 16.576875 21.0625 15.125 C19.89868255 11.70200751 18.31130472 9.74467435 16 7 C15.731875 6.2575 15.46375 5.515 15.1875 4.75 C14.02053486 2.59965377 14.02053486 2.59965377 10.625 2.25 C8.08799373 2.07503405 5.54303242 2 3 2 C2.67 3.32 2.34 4.64 2 6 C2 4.35 2 2.7 2 1 C1.34 0.67 0.68 0.34 0 0 Z " fill="#84C833" transform="translate(66,135)"/>
<path d="M0 0 C8.91 0 17.82 0 27 0 C27 1.65 27 3.3 27 5 C25.35 5 23.7 5 22 5 C21.67 6.65 21.34 8.3 21 10 C20.34 9.67 19.68 9.34 19 9 C19 8.34 19 7.68 19 7 C13.39 7 7.78 7 2 7 C1.67 9.31 1.34 11.62 1 14 C0.34 14.66 -0.32 15.32 -1 16 C-1.99 16 -2.98 16 -4 16 C-4.21914063 15.43410156 -4.43828125 14.86820313 -4.6640625 14.28515625 C-5.63933043 12.02935359 -6.59234148 10.01764387 -8 8 C-11.12133744 6.86521065 -11.12133744 6.86521065 -14 7 C-11.8748967 5.70975871 -10.44654501 5 -7.9375 5 C-4.95210784 6.54084757 -4.27574481 9.00199969 -3 12 C-2.87625 11.401875 -2.7525 10.80375 -2.625 10.1875 C-2 8 -2 8 0 5 C3.2578125 4.48828125 3.2578125 4.48828125 7.125 4.3125 C8.40632813 4.24675781 9.68765625 4.18101562 11.0078125 4.11328125 C11.99523437 4.07589844 12.98265625 4.03851563 14 4 C14 3.34 14 2.68 14 2 C7.07 1.505 7.07 1.505 0 1 C0 0.67 0 0.34 0 0 Z " fill="#86CE31" transform="translate(64,129)"/>
<path d="M0 0 C1.97909398 -0.02686553 3.95828971 -0.04633375 5.9375 -0.0625 C7.03964844 -0.07410156 8.14179688 -0.08570313 9.27734375 -0.09765625 C12 0 12 0 13 1 C13.23653523 3.52596259 13.42173692 6.03107207 13.5625 8.5625 C13.60568359 9.27341797 13.64886719 9.98433594 13.69335938 10.71679688 C13.79971777 12.47761912 13.90038846 14.2387832 14 16 C12.68 16.33 11.36 16.66 10 17 C10 12.05 10 7.1 10 2 C7.36 2 4.72 2 2 2 C2 16.19 2 30.38 2 45 C1.34 45 0.68 45 0 45 C-0.66713526 34.12331271 -1.10433378 23.27385011 -1.125 12.375 C-1.12951172 11.3739624 -1.13402344 10.3729248 -1.13867188 9.34155273 C-1.13673828 8.41157471 -1.13480469 7.48159668 -1.1328125 6.5234375 C-1.13168457 5.69763184 -1.13055664 4.87182617 -1.12939453 4.02099609 C-1 2 -1 2 0 0 Z " fill="#1E3D2A" transform="translate(388,132)"/>
<path d="M0 0 C3.64158426 -0.21421084 6.43298792 -0.20954794 9.875 1.0625 C12 3 12 3 13.0625 6.4375 C13 10 13 10 11.4375 12.4375 C8.30512879 14.44543026 6.65852292 14.60975382 3 14 C0.5625 12.4375 0.5625 12.4375 -1 10 C-0.75 6.4375 -0.75 6.4375 0 3 C0 2.01 0 1.02 0 0 Z " fill="#083120" transform="translate(175,180)"/>
<path d="M0 0 C0.90492188 0.02320313 1.80984375 0.04640625 2.7421875 0.0703125 C4.10730469 0.09738281 4.10730469 0.09738281 5.5 0.125 C6.19867188 0.14820313 6.89734375 0.17140625 7.6171875 0.1953125 C9.81902236 6.55616877 9.81902236 6.55616877 8.8671875 9.5703125 C7.6171875 11.1953125 7.6171875 11.1953125 5.6171875 12.1953125 C2.2421875 12.5703125 2.2421875 12.5703125 -1.3828125 12.1953125 C-3.8828125 10.0078125 -3.8828125 10.0078125 -5.3828125 7.1953125 C-5.19679377 3.1959099 -4.40725925 0.36125076 0 0 Z " fill="#093928" transform="translate(204.3828125,181.8046875)"/>
<path d="M0 0 C1.2065625 0.0309375 1.2065625 0.0309375 2.4375 0.0625 C2.77373796 1.3534136 3.10639249 2.64526097 3.4375 3.9375 C3.623125 4.65679687 3.80875 5.37609375 4 6.1171875 C4.4375 8.0625 4.4375 8.0625 4.4375 10.0625 C4.499375 11.0525 4.56125 12.0425 4.625 13.0625 C4.563125 14.0525 4.50125 15.0425 4.4375 16.0625 C1.4375 18.0625 1.4375 18.0625 -1.125 18 C-3.5625 17.0625 -3.5625 17.0625 -5 14.8125 C-5.68958494 11.44119586 -4.92496421 10.1658907 -3.5625 7.0625 C-3.52404557 5.06286972 -3.51705719 3.06198367 -3.5625 1.0625 C-2.5625 0.0625 -2.5625 0.0625 0 0 Z " fill="#90BC56" transform="translate(134.5625,113.9375)"/>
<path d="M0 0 C2.45868016 0.52312344 4.64106249 1.15965517 7 2 C7.82628906 2.26425781 8.65257812 2.52851563 9.50390625 2.80078125 C12.61286947 4.21660018 14.07059705 5.1414606 16 8 C17.12741089 15.46514594 15.93176984 23.74613254 14 31 C13.34 31 12.68 31 12 31 C12.1546875 30.29746094 12.309375 29.59492188 12.46875 28.87109375 C14.14449497 20.12308284 14.14449497 20.12308284 11.68359375 11.921875 C7.83981787 8.37906591 4.28227081 7 -1 7 C-4.0506469 7.50274661 -7.01922845 8.18214658 -10 9 C-6.777893 5.1334716 -3.85077588 4.11940982 1 3 C0.67 2.01 0.34 1.02 0 0 Z " fill="#5E9139" transform="translate(238,150)"/>
<path d="M0 0 C6.6 0 13.2 0 20 0 C20 0.33 20 0.66 20 1 C14.39 1 8.78 1 3 1 C3 14.53 3 28.06 3 42 C2.01 42.495 2.01 42.495 1 43 C0.21860954 28.64610668 -0.09846569 14.37599118 0 0 Z " fill="#163729" transform="translate(492,133)"/>
<path d="M0 0 C4.81826218 0.84530916 6.34029694 1.93125503 9.5625 5.625 C10.29840357 9.74605997 9.99452533 11.79695144 8.0625 15.5 C4.7093501 18.35017741 1.92022265 18.92822126 -2.4375 18.625 C-5.40420062 17.39962366 -6.88592716 16.35207328 -8.8125 13.8125 C-9.71220027 10.66354906 -9.39579149 8.75541888 -8.4375 5.625 C-5.80443058 2.06261196 -4.38830836 0.79787425 0 0 Z M-5.4375 5.625 C-6.33342083 9.22419423 -6.33342083 9.22419423 -6.4375 12.625 C-5.4475 13.12 -5.4475 13.12 -4.4375 13.625 C-4.4375 14.285 -4.4375 14.945 -4.4375 15.625 C-3.7775 15.625 -3.1175 15.625 -2.4375 15.625 C-2.4375 16.285 -2.4375 16.945 -2.4375 17.625 C1.93413047 17.12538509 4.60386665 15.93170786 7.5625 12.625 C7.5625 9.02789861 7.28399234 6.69006012 5.25 3.6875 C1.25324299 1.17102336 -2.19407405 2.90753502 -5.4375 5.625 Z " fill="#95C350" transform="translate(210.4375,128.375)"/>
<path d="M0 0 C1.2065625 0.0309375 1.2065625 0.0309375 2.4375 0.0625 C1.4475 1.5475 1.4475 1.5475 0.4375 3.0625 C4.3975 3.3925 8.3575 3.7225 12.4375 4.0625 C12.4375 4.3925 12.4375 4.7225 12.4375 5.0625 C2.0425 5.5575 2.0425 5.5575 -8.5625 6.0625 C-4.6025 6.3925 -0.6425 6.7225 3.4375 7.0625 C3.4375 7.3925 3.4375 7.7225 3.4375 8.0625 C-3.4925 8.0625 -10.4225 8.0625 -17.5625 8.0625 C-17.2325 7.4025 -16.9025 6.7425 -16.5625 6.0625 C-17.5525 5.7325 -18.5425 5.4025 -19.5625 5.0625 C-19.5625 4.4025 -19.5625 3.7425 -19.5625 3.0625 C-16.79999964 1.68124982 -14.61518901 1.87170694 -11.5625 2.0625 C-10.9025 2.7225 -10.2425 3.3825 -9.5625 4.0625 C-9.5625 3.0725 -9.5625 2.0825 -9.5625 1.0625 C-8.1084375 1.0934375 -8.1084375 1.0934375 -6.625 1.125 C-3.22707532 1.0556546 -3.2165483 0.0784524 0 0 Z " fill="#2C694E" transform="translate(198.5625,171.9375)"/>
<path d="M0 0 C16.17 0 32.34 0 49 0 C49.495 1.485 49.495 1.485 50 3 C39.02958998 3.10921868 28.08810627 3.00638115 17.125 2.5625 C16.10986328 2.52326416 15.09472656 2.48402832 14.04882812 2.44360352 C9.2907879 2.23605672 4.68195104 1.94432572 0 1 C0 0.67 0 0.34 0 0 Z " fill="#6AAF1A" transform="translate(114,172)"/>
<path d="M0 0 C2 2 2 2 2.3125 5.4375 C2 9 2 9 0.9375 11 C-2.19241926 12.6154422 -4.68174093 11.79884015 -8 11 C-9.39935013 8.20129973 -9.25265405 6.09501208 -9 3 C-6.78679539 -0.68867435 -4.02162985 -0.42783296 0 0 Z " fill="#7FCC2A" transform="translate(242,164)"/>
<path d="M0 0 C0.66 0.33 1.32 0.66 2 1 C1.67 14.86 1.34 28.72 1 43 C-0.485 43.495 -0.485 43.495 -2 44 C-2.18981926 18.67811044 -2.18981926 18.67811044 -1.5625 7.9375 C-1.52326416 7.2369751 -1.48402832 6.5364502 -1.44360352 5.81469727 C-1.13215113 1.13215113 -1.13215113 1.13215113 0 0 Z " fill="#1C3C2B" transform="translate(282,133)"/>
<path d="M0 0 C0.433125 0.515625 0.86625 1.03125 1.3125 1.5625 C1.9725 2.2225 2.6325 2.8825 3.3125 3.5625 C2.44238281 3.60117188 2.44238281 3.60117188 1.5546875 3.640625 C-4.03057319 4.04615548 -7.06578725 5.23056756 -11.6875 8.5625 C-13.0075 8.5625 -14.3275 8.5625 -15.6875 8.5625 C-15.3575 5.2625 -15.0275 1.9625 -14.6875 -1.4375 C-3.661875 -3.119375 -3.661875 -3.119375 0 0 Z " fill="#80C92F" transform="translate(239.6875,150.4375)"/>
<path d="M0 0 C3.5 0.5625 3.5 0.5625 5.5625 2.75 C6.5 5.5625 6.5 5.5625 6.0625 8.3125 C4.5 10.5625 4.5 10.5625 1.625 11.5625 C-1.5 11.5625 -1.5 11.5625 -3.8125 10.375 C-5.71548706 8.33105094 -6.41528353 7.35814348 -6.5 4.5625 C-4.9072931 0.97890947 -3.90850949 0.62815331 0 0 Z " fill="#8DBC4E" transform="translate(172.5,116.4375)"/>
<path d="M0 0 C0 2.31 0 4.62 0 7 C-0.99 7 -1.98 7 -3 7 C-3 5.35 -3 3.7 -3 2 C-3.53882813 2.08378906 -4.07765625 2.16757813 -4.6328125 2.25390625 C-15.06473745 3.54563363 -25.54360024 2.6101988 -36 2 C-35.67 3.98 -35.34 5.96 -35 8 C-35.99 8.495 -35.99 8.495 -37 9 C-37.09765625 2.84765625 -37.09765625 2.84765625 -37 1 C-34.8176118 -1.1823882 -29.96980786 -0.47681908 -26.9375 -0.625 C-26.04385742 -0.67003662 -25.15021484 -0.71507324 -24.22949219 -0.76147461 C-16.08541761 -1.1093698 -8.11492363 -0.73668999 0 0 Z " fill="#123424" transform="translate(608,132)"/>
<path d="M0 0 C5.92826219 0.40884567 9.15406349 1.3078579 14 5 C14.66 5.33 15.32 5.66 16 6 C16 6.99 16 7.98 16 9 C11.38 9 6.76 9 2 9 C0.11656068 5.23312136 -0.22057835 3.97041037 0 0 Z " fill="#80C92D" transform="translate(255,170)"/>
<path d="M0 0 C5.613631 3.95505821 7.55102168 7.69317166 10 14 C10.44730469 15.01449219 10.89460937 16.02898437 11.35546875 17.07421875 C11.81566406 18.12222656 12.27585938 19.17023438 12.75 20.25 C13.17796875 21.22453125 13.6059375 22.1990625 14.046875 23.203125 C15.00166624 26.00488945 15.19269644 28.06673202 15 31 C13.35 31 11.7 31 10 31 C10 30.34 10 29.68 10 29 C8.68 28.67 7.36 28.34 6 28 C7.98 28 9.96 28 12 28 C11.54625 27.154375 11.0925 26.30875 10.625 25.4375 C8.995023 21.98947174 8.00159716 18.6725229 7 15 C6.62875 14.113125 6.2575 13.22625 5.875 12.3125 C5 10 5 10 5 6 C3.68 5.67 2.36 5.34 1 5 C0.67 3.35 0.34 1.7 0 0 Z " fill="#81BA4A" transform="translate(155,150)"/>
<path d="M0 0 C0.99 0.66 1.98 1.32 3 2 C3.2578125 4.0234375 3.2578125 4.0234375 3.125 6.375 C2.96859531 9.49266684 3.10900537 11.99803349 4 15 C3.34 14.67 2.68 14.34 2 14 C1.01 17.96 0.02 21.92 -1 26 C-1.66 25.34 -2.32 24.68 -3 24 C-2.61935804 17.14844475 -0.75213421 10.61182722 1 4 C-0.05960938 4.02320313 -1.11921875 4.04640625 -2.2109375 4.0703125 C-3.5989513 4.08906944 -4.9869727 4.10726972 -6.375 4.125 C-7.42300781 4.15013672 -7.42300781 4.15013672 -8.4921875 4.17578125 C-10.32897486 4.19344267 -12.16601963 4.10303261 -14 4 C-14.66 3.34 -15.32 2.68 -16 2 C-10.72 2 -5.44 2 0 2 C0 1.34 0 0.68 0 0 Z " fill="#3C7A49" transform="translate(218,146)"/>
<path d="M0 0 C3.86420325 1.32849213 5.96675014 3.98517832 8.55078125 7.00390625 C9.05287109 7.57173828 9.55496094 8.13957031 10.07226562 8.72460938 C11.30455349 10.12120229 12.52283773 11.53012945 13.73828125 12.94140625 C13.40828125 13.60140625 13.07828125 14.26140625 12.73828125 14.94140625 C11.1536831 13.52615447 9.57065734 12.10914205 7.98828125 10.69140625 C7.1065625 9.9025 6.22484375 9.11359375 5.31640625 8.30078125 C3.06651133 6.2417865 0.89483945 4.09796445 -1.26171875 1.94140625 C-1.59171875 6.89140625 -1.92171875 11.84140625 -2.26171875 16.94140625 C-2.92171875 16.94140625 -3.58171875 16.94140625 -4.26171875 16.94140625 C-4.26171875 11.66140625 -4.26171875 6.38140625 -4.26171875 0.94140625 C-2.26171875 -0.05859375 -2.26171875 -0.05859375 0 0 Z " fill="#163625" transform="translate(402.26171875,159.05859375)"/>
<path d="M0 0 C0.19916043 4.29120727 0.38218102 8.58296299 0.5625 12.875 C0.61857422 14.07898438 0.67464844 15.28296875 0.73242188 16.5234375 C1.01499606 23.45592406 0.95237638 30.12183646 0 37 C-0.99 36.67 -1.98 36.34 -3 36 C-2.67 24.78 -2.34 13.56 -2 2 C-3.98 2 -5.96 2 -8 2 C-4.77208445 -0.1519437 -3.71599191 -0.20086443 0 0 Z " fill="#1E3D2C" transform="translate(456,132)"/>
<path d="M0 0 C3.85174221 1.28391407 6.76885803 2.56207684 9 6 C10.18480209 13.1652317 9.53802463 19.66103921 6 26 C5.34 26 4.68 26 4 26 C4 26.66 4 27.32 4 28 C3.01 28 2.02 28 1 28 C2.20381448 25.50638429 3.45428722 23.31856917 5 21 C5.31855376 17.93387601 5.31855376 17.93387601 5.25 14.5625 C5.25515625 13.42941406 5.2603125 12.29632813 5.265625 11.12890625 C5.01065814 8.12554657 4.6360943 6.48846511 3 4 C0.96682993 2.26574227 0.96682993 2.26574227 -1 1 C-0.67 0.67 -0.34 0.34 0 0 Z " fill="#193927" transform="translate(358,141)"/>
<path d="M0 0 C3 -0.3125 3 -0.3125 6 0 C8 2 8 2 8.125 4.625 C8.08375 5.40875 8.0425 6.1925 8 7 C8.99 7.33 9.98 7.66 11 8 C8.11788698 8.96070434 6.30149956 9.10581883 3.3125 9.0625 C2.10013672 9.04896484 2.10013672 9.04896484 0.86328125 9.03515625 C-0.05904297 9.01775391 -0.05904297 9.01775391 -1 9 C-1.625 6.1875 -1.625 6.1875 -2 3 C-1.34 2.01 -0.68 1.02 0 0 Z " fill="#8DB758" transform="translate(152,113)"/>
<path d="M0 0 C0.66 0.99 1.32 1.98 2 3 C0.35 2.67 -1.3 2.34 -3 2 C-3 2.66 -3 3.32 -3 4 C-4.32 4 -5.64 4 -7 4 C-9.16617415 7.24926122 -9.21335669 7.5985242 -8.625 11.1875 C-8.41875 12.445625 -8.2125 13.70375 -8 15 C-5.03 15 -2.06 15 1 15 C0.67 15.66 0.34 16.32 0 17 C-6.37850467 17.49065421 -6.37850467 17.49065421 -9.375 15.125 C-12.27049855 11.33857882 -12.41103573 8.76801445 -12 4 C-8.94239431 -0.96860924 -5.32843948 -0.60159801 0 0 Z " fill="#6FB133" transform="translate(76,155)"/>
<path d="M0 0 C-1 2 -1 2 -2.99609375 2.7109375 C-4.61995947 3.15262898 -6.24496514 3.59015123 -7.87109375 4.0234375 C-10.07764043 4.8321902 -10.07764043 4.8321902 -11.24609375 6.6484375 C-12.27406461 9.85485436 -12.43845061 12.89211098 -12.625 16.25 C-12.69976562 17.51328125 -12.77453125 18.7765625 -12.8515625 20.078125 C-12.90054687 21.04234375 -12.94953125 22.0065625 -13 23 C-13.99 22.67 -14.98 22.34 -16 22 C-16.86015976 9.28875027 -16.86015976 9.28875027 -13.8125 4.8125 C-9.34373678 0.34373678 -6.22731875 -0.28964273 0 0 Z " fill="#183825" transform="translate(356,140)"/>
<path d="M0 0 C0.99 0.33 1.98 0.66 3 1 C3.66 0.67 4.32 0.34 5 0 C5.66 0.33 6.32 0.66 7 1 C7 3.31 7 5.62 7 8 C6.01 8.33 5.02 8.66 4 9 C4.33 9.99 4.66 10.98 5 12 C3.68 12 2.36 12 1 12 C-1.06582981 9.41771274 -1.9298773 7.60305519 -2.3125 4.3125 C-2 2 -2 2 0 0 Z " fill="#1A5D44" transform="translate(189,124)"/>
<path d="M0 0 C0.99 0 1.98 0 3 0 C3 3.3 3 6.6 3 10 C-0.18285696 11.59142848 -3.5870442 11.00008284 -7.0703125 10.87890625 C-7.86654022 10.85529526 -8.66276794 10.83168427 -9.48312378 10.80735779 C-12.03059529 10.73067789 -14.5777661 10.64667239 -17.125 10.5625 C-18.85024562 10.50928363 -20.57550598 10.4565432 -22.30078125 10.40429688 C-26.53404522 10.27505693 -30.76705382 10.13924581 -35 10 C-31.35783305 7.70177675 -28.29174993 7.76871398 -24.046875 7.8046875 C-23.38665344 7.8075174 -22.72643188 7.81034729 -22.04620361 7.81326294 C-19.94728103 7.82441585 -17.84879258 7.84951054 -15.75 7.875 C-14.32292285 7.88503616 -12.89583898 7.8941609 -11.46875 7.90234375 C-7.97902672 7.92433889 -4.48955577 7.95883464 -1 8 C-0.67 5.36 -0.34 2.72 0 0 Z " fill="#103322" transform="translate(479,168)"/>
<path d="M0 0 C1.32 0.33 2.64 0.66 4 1 C5.60455021 5.22250055 6.33807057 7.15482358 4.625 11.4375 C4.08875 12.283125 3.5525 13.12875 3 14 C-3.4 14.49230769 -3.4 14.49230769 -6.4375 12 C-6.953125 11.34 -7.46875 10.68 -8 10 C-5.69 10.33 -3.38 10.66 -1 11 C-1 10.34 -1 9.68 -1 9 C-0.01 8.67 0.98 8.34 2 8 C2 6.35 2 4.7 2 3 C1.34 3 0.68 3 0 3 C0 2.01 0 1.02 0 0 Z " fill="#7DB740" transform="translate(179,133)"/>
<path d="M0 0 C0.33 0.66 0.66 1.32 1 2 C1.66 2 2.32 2 3 2 C3 1.34 3 0.68 3 0 C16.14893617 1.80851064 16.14893617 1.80851064 21 5 C21.99 6.485 21.99 6.485 23 8 C22.3090625 7.70480469 21.618125 7.40960938 20.90625 7.10546875 C17.7979094 5.92312952 14.73373763 5.08693483 11.5 4.3125 C10.3965625 4.04050781 9.293125 3.76851562 8.15625 3.48828125 C5.04817349 3.00745258 3.00351361 3.16506805 0 4 C0 4.66 0 5.32 0 6 C-2.64738916 7.4606285 -3.89448334 8 -7 8 C-5.74381926 4.23145777 -4.33985294 3.92041544 -1 2 C-0.67 1.34 -0.34 0.68 0 0 Z " fill="#31542B" transform="translate(65,141)"/>
<path d="M0 0 C0.66 0 1.32 0 2 0 C1.70703125 2.05078125 1.4140625 4.1015625 1.12109375 6.15234375 C1.08113281 6.76207031 1.04117188 7.37179688 1 8 C2.0595877 9.28322547 2.0595877 9.28322547 4.5 9.125 C6.9404123 9.28322547 6.9404123 9.28322547 8 8 C8.07148199 6.64756083 8.08399454 5.29165633 8.0625 3.9375 C8.041875 2.638125 8.02125 1.33875 8 0 C8.66 0 9.32 0 10 0 C12.20183486 6.36085627 12.20183486 6.36085627 11.25 9.375 C10 11 10 11 8 12 C4.625 12.375 4.625 12.375 1 12 C-1.5 9.8125 -1.5 9.8125 -3 7 C-2.84077523 3.57666749 -2.4368763 2.4368763 0 0 Z " fill="#1E402C" transform="translate(202,182)"/>
<path d="M0 0 C2.0625 0.4375 2.0625 0.4375 4 1 C4.56122991 12.8689733 4.56122991 12.8689733 1 17 C0.67 17 0.34 17 0 17 C-0.77170969 11.59803219 -1.19153637 6.45878647 -1 1 C-0.67 0.67 -0.34 0.34 0 0 Z " fill="#09301E" transform="translate(247,162)"/>
<path d="M0 0 C3.69096643 2.46064429 4.46696367 3.8389014 6 8 C6.75283629 14.57477025 6.55620948 21.2423275 3 27 C1.10965792 28.97211261 -0.75699572 30.40497474 -3 32 C-3.33 31.34 -3.66 30.68 -4 30 C-3.34 30 -2.68 30 -2 30 C-1.896875 29.401875 -1.79375 28.80375 -1.6875 28.1875 C-0.90088144 25.68462276 0.13545831 24.78685245 2 23 C3.11221955 19.66334135 3.20253779 17.01220338 3.25 13.5 C3.27578125 12.3553125 3.3015625 11.210625 3.328125 10.03125 C2.95885263 6.61987666 2.4207076 6.1913774 0 4 C0 2.68 0 1.36 0 0 Z " fill="#43702B" transform="translate(88,149)"/>
<path d="M0 0 C8 0 8 0 11 1 C10.67 1.66 10.34 2.32 10 3 C7.36 2.67 4.72 2.34 2 2 C2 15.86 2 29.72 2 44 C1.67 44 1.34 44 1 44 C0.67 29.48 0.34 14.96 0 0 Z " fill="#193B2A" transform="translate(546,132)"/>
<path d="M0 0 C3.3 0 6.6 0 10 0 C10 3.3 10 6.6 10 10 C1.75 10 -6.5 10 -15 10 C-15 9.67 -15 9.34 -15 9 C-7.74 8.67 -0.48 8.34 7 8 C7 5.69 7 3.38 7 1 C4.69 1 2.38 1 0 1 C0 0.67 0 0.34 0 0 Z " fill="#173927" transform="translate(309,168)"/>
<path d="M0 0 C13.86 0 27.72 0 42 0 C42 2.64 42 5.28 42 8 C41.01 8.33 40.02 8.66 39 9 C39.33 6.36 39.66 3.72 40 1 C26.8 1 13.6 1 0 1 C0 0.67 0 0.34 0 0 Z " fill="#98CA52" transform="translate(51,128)"/>
<path d="M0 0 C4.455 0.99 4.455 0.99 9 2 C10.05079545 6.2031818 9.93330444 9.74539866 9.625 14 C9.58117187 14.7115625 9.53734375 15.423125 9.4921875 16.15625 C9.26554587 19.53069203 8.99634651 22.75765205 8 26 C7.34 26 6.68 26 6 26 C6.15984375 25.29875 6.3196875 24.5975 6.484375 23.875 C7.02306767 20.87138027 7.20331324 18.05020151 7.25 15 C7.27578125 13.989375 7.3015625 12.97875 7.328125 11.9375 C6.73858078 6.65967555 3.77721806 3.51672027 0 0 Z " fill="#689C40" transform="translate(244,155)"/>
<path d="M0 0 C3.69628969 -0.21742881 6.45781172 -0.20764658 9.9375 1.125 C12 3 12 3 12.3125 6.1875 C12.1578125 7.5796875 12.1578125 7.5796875 12 9 C10 7 10 7 9 4 C6.10813214 2.66695302 6.10813214 2.66695302 3.8125 3.9375 C3.214375 4.288125 2.61625 4.63875 2 5 C2 7.31 2 9.62 2 12 C1.34 12 0.68 12 0 12 C-1.25 5.375 -1.25 5.375 1 2 C0.67 1.34 0.34 0.68 0 0 Z " fill="#1E432F" transform="translate(175,180)"/>
<path d="M0 0 C3 2 3 2 6 4 C7.98799818 4.70164642 9.98698517 5.37372872 12 6 C12 6.66 12 7.32 12 8 C9.87465341 7.85930804 7.74972471 7.71229079 5.625 7.5625 C4.44164062 7.48128906 3.25828125 7.40007812 2.0390625 7.31640625 C-1 7 -1 7 -3 6 C-2.625 3.5625 -2.625 3.5625 -2 1 C-1.34 0.67 -0.68 0.34 0 0 Z " fill="#88C243" transform="translate(142,143)"/>
<path d="M0 0 C0 0.99 0 1.98 0 3 C-0.33 3.33 -0.66 3.66 -1 4 C-1.30638058 8.70384309 -1.18272247 13.40727913 -0.4375 18.0625 C-0.293125 19.031875 -0.14875 20.00125 0 21 C-1 22 -1 22 -2.84765625 22.09765625 C-4.8984375 22.06510417 -6.94921875 22.03255208 -9 22 C-9 21.67 -9 21.34 -9 21 C-7.35 21 -5.7 21 -4 21 C-4.02320313 20.13117188 -4.04640625 19.26234375 -4.0703125 18.3671875 C-4.09738281 16.63855469 -4.09738281 16.63855469 -4.125 14.875 C-4.14820313 13.73804688 -4.17140625 12.60109375 -4.1953125 11.4296875 C-3.93552774 6.86786706 -3.28515921 3.28515921 0 0 Z " fill="#46782D" transform="translate(227,159)"/>
<path d="M0 0 C2.97 0 5.94 0 9 0 C9 0.33 9 0.66 9 1 C6.36 1 3.72 1 1 1 C0.67 4.3 0.34 7.6 0 11 C0.99 11.33 1.98 11.66 3 12 C1.35830472 14.02054804 -0.30911778 16.02043058 -2 18 C-2.33 18 -2.66 18 -3 18 C-2.88566637 15.74943278 -2.75813564 13.49953326 -2.625 11.25 C-2.55539063 9.99703125 -2.48578125 8.7440625 -2.4140625 7.453125 C-2 4 -2 4 0 0 Z " fill="#7FBA42" transform="translate(224,148)"/>
<path d="M0 0 C0.33 0 0.66 0 1 0 C1.02505615 0.66942627 1.0501123 1.33885254 1.07592773 2.02856445 C1.19347076 5.12333094 1.31546486 8.21790752 1.4375 11.3125 C1.47681641 12.36501953 1.51613281 13.41753906 1.55664062 14.50195312 C1.83098364 21.36052848 2.30680652 28.17098103 3 35 C2.01 35 1.02 35 0 35 C0 23.45 0 11.9 0 0 Z " fill="#204033" transform="translate(291,134)"/>
<path d="M0 0 C6.15234375 0.5859375 6.15234375 0.5859375 8 1 C8.33 1.66 8.66 2.32 9 3 C7.68 3 6.36 3 5 3 C5.33 4.98 5.66 6.96 6 9 C4.68 9 3.36 9 2 9 C0.14223235 5.86501708 -0.20140476 3.62528568 0 0 Z " fill="#6EB122" transform="translate(255,170)"/>
<path d="M0 0 C0.66 0.33 1.32 0.66 2 1 C2 3.31 2 5.62 2 8 C5.76300374 9.25433458 9.27210909 9.10695422 13.1875 9.0625 C13.93708984 9.05798828 14.68667969 9.05347656 15.45898438 9.04882812 C17.30602383 9.03706354 19.15302213 9.01912865 21 9 C21.33 9.66 21.66 10.32 22 11 C18.35418313 11.02887512 14.70839537 11.04675585 11.0625 11.0625 C9.50112305 11.07506836 9.50112305 11.07506836 7.90820312 11.08789062 C6.91884766 11.09111328 5.92949219 11.09433594 4.91015625 11.09765625 C3.99371338 11.10289307 3.07727051 11.10812988 2.13305664 11.11352539 C0 11 0 11 -1 10 C-1.0979057 8.50261876 -1.12974864 7.00057108 -1.125 5.5 C-1.12757813 4.6853125 -1.13015625 3.870625 -1.1328125 3.03125 C-1 1 -1 1 0 0 Z " fill="#0C2915" transform="translate(570,132)"/>
<path d="M0 0 C2.79724672 2.01052108 3.15065585 4.18168077 4 7.4375 C1.69 7.4375 -0.62 7.4375 -3 7.4375 C-3 6.7775 -3 6.1175 -3 5.4375 C-3.66 5.4375 -4.32 5.4375 -5 5.4375 C-4.625 3 -4.625 3 -4 0.4375 C-2 -0.5625 -2 -0.5625 0 0 Z " fill="#8CCD35" transform="translate(174,118.5625)"/>
<path d="M0 0 C1.2065625 0.0309375 1.2065625 0.0309375 2.4375 0.0625 C2.1075 0.7225 1.7775 1.3825 1.4375 2.0625 C0.4475 2.0625 -0.5425 2.0625 -1.5625 2.0625 C-1.5625 2.7225 -1.5625 3.3825 -1.5625 4.0625 C-0.71365234 4.46082031 -0.71365234 4.46082031 0.15234375 4.8671875 C0.88582031 5.22039062 1.61929688 5.57359375 2.375 5.9375 C3.10589844 6.28554687 3.83679688 6.63359375 4.58984375 6.9921875 C6.4375 8.0625 6.4375 8.0625 7.4375 10.0625 C2.59090923 9.47145235 -1.16998167 8.08305843 -5.5625 6.0625 C-3.26136364 0.07954545 -3.26136364 0.07954545 0 0 Z " fill="#3B7053" transform="translate(151.5625,138.9375)"/>
<path d="M0 0 C1.86785156 0.01353516 1.86785156 0.01353516 3.7734375 0.02734375 C5.18496094 0.04474609 5.18496094 0.04474609 6.625 0.0625 C6.625 0.3925 6.625 0.7225 6.625 1.0625 C2.995 1.0625 -0.635 1.0625 -4.375 1.0625 C-4.375 1.7225 -4.375 2.3825 -4.375 3.0625 C-0.745 3.0625 2.885 3.0625 6.625 3.0625 C6.625 3.3925 6.625 3.7225 6.625 4.0625 C-8.15632118 4.24701025 -8.15632118 4.24701025 -14.375 3.0625 C-14.045 2.4025 -13.715 1.7425 -13.375 1.0625 C-8.90851439 -0.00382314 -4.57491621 -0.04315959 0 0 Z " fill="#70B31F" transform="translate(113.375,155.9375)"/>
<path d="M0 0 C3.08028948 2.77226053 4.83016411 5.00306072 6 9 C6.125 11.8125 6.125 11.8125 6 14 C4.35 14 2.7 14 1 14 C1 13.34 1 12.68 1 12 C-0.32 11.67 -1.64 11.34 -3 11 C-1.02 11 0.96 11 3 11 C2.505 10.113125 2.01 9.22625 1.5 8.3125 C0.05621326 5.12413762 -0.30159922 3.41812454 0 0 Z " fill="#87C83E" transform="translate(164,167)"/>
<path d="M0 0 C2.98539216 1.54084757 3.66175519 4.00199969 4.9375 7 C6.2575 6.01 7.5775 5.02 8.9375 4 C9.2675 4.99 9.5975 5.98 9.9375 7 C8.6875 9.1875 8.6875 9.1875 6.9375 11 C5.9475 11 4.9575 11 3.9375 11 C3.71835937 10.43410156 3.49921875 9.86820313 3.2734375 9.28515625 C2.29816957 7.02935359 1.34515852 5.01764387 -0.0625 3 C-3.18383744 1.86521065 -3.18383744 1.86521065 -6.0625 2 C-3.9373967 0.70975871 -2.50904501 0 0 0 Z " fill="#8AC246" transform="translate(56.0625,134)"/>
<path d="M0 0 C1.66611905 -0.042721 3.33382885 -0.04063832 5 0 C6 1 6 1 6.125 4.5 C6 8 6 8 5 9 C3.14712498 9.07226502 1.29166122 9.0838122 -0.5625 9.0625 C-1.57441406 9.05347656 -2.58632813 9.04445312 -3.62890625 9.03515625 C-4.41136719 9.02355469 -5.19382812 9.01195312 -6 9 C-6 8.34 -6 7.68 -6 7 C-2.7 7 0.6 7 4 7 C3.67 5.35 3.34 3.7 3 2 C2.01 1.67 1.02 1.34 0 1 C0 0.67 0 0.34 0 0 Z " fill="#8FC050" transform="translate(267,172)"/>
<path d="M0 0 C0.99 0.495 0.99 0.495 2 1 C2 1.66 2 2.32 2 3 C10.415 2.505 10.415 2.505 19 2 C19.33 2.99 19.66 3.98 20 5 C19.10796875 4.98839844 18.2159375 4.97679687 17.296875 4.96484375 C16.12640625 4.95582031 14.9559375 4.94679687 13.75 4.9375 C12.58984375 4.92589844 11.4296875 4.91429687 10.234375 4.90234375 C7.13244601 4.86555499 7.13244601 4.86555499 4.765625 5.62890625 C4.18296875 5.75136719 3.6003125 5.87382812 3 6 C2.01 5.34 1.02 4.68 0 4 C0 2.68 0 1.36 0 0 Z " fill="#326948" transform="translate(163,145)"/>
<path d="M0 0 C2.27076842 -0.02699725 4.54162821 -0.04639453 6.8125 -0.0625 C8.07707031 -0.07410156 9.34164062 -0.08570313 10.64453125 -0.09765625 C14 0 14 0 17 1 C18.30480865 4.26202163 19.21066812 7.57956185 20 11 C16.1516035 7.40816327 16.1516035 7.40816327 15.1875 4.8125 C14.03676006 2.59635633 14.03676006 2.59635633 10.625 2.25 C8.08799373 2.07503405 5.54303242 2 3 2 C2.67 3.32 2.34 4.64 2 6 C2 4.35 2 2.7 2 1 C1.34 0.67 0.68 0.34 0 0 Z " fill="#82B347" transform="translate(66,135)"/>
<path d="M0 0 C0.86625 0.3403125 0.86625 0.3403125 1.75 0.6875 C1.13125 0.873125 0.5125 1.05875 -0.125 1.25 C-3.30602866 3.40187233 -3.44451947 6.06283763 -4.25 9.6875 C-3.26 10.0175 -2.27 10.3475 -1.25 10.6875 C-1.58 11.3475 -1.91 12.0075 -2.25 12.6875 C-1.59 12.6875 -0.93 12.6875 -0.25 12.6875 C-0.25 13.3475 -0.25 14.0075 -0.25 14.6875 C-3.00220373 13.81838303 -4.8156698 13.2402839 -6.625 10.9375 C-7.49273921 7.81363883 -7.1720483 5.78294787 -6.25 2.6875 C-4.08288897 0.37093304 -3.1880044 -0.44277839 0 0 Z " fill="#88C443" transform="translate(208.25,131.3125)"/>
<path d="M0 0 C2.625 0.375 2.625 0.375 5 1 C5.625 2.875 5.625 2.875 6 5 C5.34 5.66 4.68 6.32 4 7 C1.375 6.625 1.375 6.625 -1 6 C-1.625 4.125 -1.625 4.125 -2 2 C-1.34 1.34 -0.68 0.68 0 0 Z " fill="#93C33F" transform="translate(115,120)"/>
<path d="M0 0 C1.2065625 0.0309375 1.2065625 0.0309375 2.4375 0.0625 C3.0625 2.4375 3.0625 2.4375 3.4375 5.0625 C1.4375 7.0625 1.4375 7.0625 -1.1875 7.1875 C-1.97125 7.14625 -2.755 7.105 -3.5625 7.0625 C-3.60504356 5.06295254 -3.60330783 3.06208364 -3.5625 1.0625 C-2.5625 0.0625 -2.5625 0.0625 0 0 Z " fill="#4A7F55" transform="translate(134.5625,113.9375)"/>
<path d="M0 0 C0.598125 0.350625 1.19625 0.70125 1.8125 1.0625 C1.4825 2.7125 1.1525 4.3625 0.8125 6.0625 C-0.1775 6.3925 -1.1675 6.7225 -2.1875 7.0625 C-3.6875 5.8125 -3.6875 5.8125 -5.1875 4.0625 C-5.1875 2.7425 -5.1875 1.4225 -5.1875 0.0625 C-2.1875 -0.9375 -2.1875 -0.9375 0 0 Z " fill="#8DCD44" transform="translate(157.1875,114.9375)"/>
<path d="M0 0 C0.33 0 0.66 0 1 0 C1.08160748 1.89510699 1.13946459 3.79124504 1.1875 5.6875 C1.22230469 6.74324219 1.25710937 7.79898438 1.29296875 8.88671875 C0.87943933 13.28115803 -0.80694726 15.84543284 -3.9375 18.875 C-6 20 -6 20 -8.25 19.6875 C-8.8275 19.460625 -9.405 19.23375 -10 19 C-8.13670237 17.75780158 -6.26899374 16.52216082 -4.39453125 15.296875 C-1.31848614 12.34628034 -1.14785508 10.43504619 -0.6875 6.25 C-0.54699219 5.07953125 -0.40648437 3.9090625 -0.26171875 2.703125 C-0.17535156 1.81109375 -0.08898437 0.9190625 0 0 Z " fill="#28502D" transform="translate(251,164)"/>
<path d="M0 0 C1.9375 0.5625 1.9375 0.5625 4 2 C5.68752638 7.73758969 4.5968602 10.910154 2 16 C1.34 16 0.68 16 0 16 C0.2475 15.2575 0.2475 15.2575 0.5 14.5 C1.45131847 9.74340765 1.54677229 4.64031687 0 0 Z " fill="#132F1C" transform="translate(528,136)"/>
<path d="M0 0 C1.2065625 0.0309375 1.2065625 0.0309375 2.4375 0.0625 C3.0625 1.875 3.0625 1.875 3.4375 4.0625 C2.4475 5.5475 2.4475 5.5475 1.4375 7.0625 C-0.2125 6.7325 -1.8625 6.4025 -3.5625 6.0625 C-3.605221 4.39638095 -3.60313832 2.72867115 -3.5625 1.0625 C-2.5625 0.0625 -2.5625 0.0625 0 0 Z " fill="#1A5F44" transform="translate(156.5625,125.9375)"/>
<path d="M0 0 C1.258125 -0.020625 2.51625 -0.04125 3.8125 -0.0625 C4.52019531 -0.07410156 5.22789063 -0.08570313 5.95703125 -0.09765625 C8 0 8 0 11 1 C11 1.99 11 2.98 11 4 C11.66 4 12.32 4 13 4 C14.4783226 6.95664519 14.06032783 9.74229737 14 13 C13.67 13 13.34 13 13 13 C12.86979167 10.98177083 12.73958333 8.96354167 12.609375 6.9453125 C12.16932376 4.85543691 12.16932376 4.85543691 10.25 3.75 C7.76922461 2.92307487 5.85718717 2.79831802 3.25 2.875 C2.05117187 2.90207031 2.05117187 2.90207031 0.828125 2.9296875 C-0.07679687 2.96449219 -0.07679687 2.96449219 -1 3 C-0.67 2.01 -0.34 1.02 0 0 Z " fill="#154312" transform="translate(68,153)"/>
<path d="M0 0 C0.66 0.33 1.32 0.66 2 1 C2.35807422 7.32597793 2.35807422 7.32597793 0.9375 10 C-2.13335213 11.58495594 -4.72186775 10.68036707 -8 10 C-8 9.34 -8 8.68 -8 8 C-5.69 8.33 -3.38 8.66 -1 9 C-0.67 6.03 -0.34 3.06 0 0 Z " fill="#72B631" transform="translate(242,165)"/>
<path d="M0 0 C1.98 0.66 3.96 1.32 6 2 C7.3403676 8.33628319 7.3403676 8.33628319 5.75 11.4375 C4 13 4 13 1 13 C1 12.34 1 11.68 1 11 C1.66 10.67 2.32 10.34 3 10 C3.40729228 7.67843403 3.74438677 5.3431213 4 3 C2.68 2.34 1.36 1.68 0 1 C0 0.67 0 0.34 0 0 Z " fill="#3E6E4C" transform="translate(192,122)"/>
<path d="M0 0 C2.6875 0.3125 2.6875 0.3125 5 1 C5.5625 2.9375 5.5625 2.9375 6 5 C5 6 5 6 1.4375 6.0625 C0.303125 6.041875 -0.83125 6.02125 -2 6 C-2.33 5.01 -2.66 4.02 -3 3 C-1.8125 1.4375 -1.8125 1.4375 0 0 Z " fill="#88CB30" transform="translate(132,124)"/>
<path d="M0 0 C1.2065625 0.0309375 1.2065625 0.0309375 2.4375 0.0625 C3.4140625 6.1171875 3.4140625 6.1171875 3.4375 8.0625 C2.7775 8.7225 2.1175 9.3825 1.4375 10.0625 C-0.6875 9.6875 -0.6875 9.6875 -2.5625 9.0625 C-1.2425 8.4025 0.0775 7.7425 1.4375 7.0625 C1.4375 5.7425 1.4375 4.4225 1.4375 3.0625 C-0.8725 3.7225 -3.1825 4.3825 -5.5625 5.0625 C-3.15007962 0.07683121 -3.15007962 0.07683121 0 0 Z " fill="#073220" transform="translate(207.5625,181.9375)"/>
<path d="M0 0 C0.66 0 1.32 0 2 0 C3.07525194 2.65228812 4.09456151 5.28368454 5 8 C5.66 8.33 6.32 8.66 7 9 C7 10.65 7 12.3 7 14 C6.01 14.495 6.01 14.495 5 15 C4.16013916 13.06532058 3.32831973 11.12714871 2.5 9.1875 C2.0359375 8.10855469 1.571875 7.02960938 1.09375 5.91796875 C0 3 0 3 0 0 Z " fill="#376749" transform="translate(167,164)"/>
<path d="M0 0 C0.33 0 0.66 0 1 0 C1.22084624 6.09781001 1.01167675 11.21642935 -1 17 C-1.66 16.34 -2.32 15.68 -3 15 C-2.64342001 9.7404452 -1.56835699 5.01874237 0 0 Z " fill="#36704C" transform="translate(218,155)"/>
<path d="M0 0 C0.33 0 0.66 0 1 0 C0.6875 3.375 0.6875 3.375 0 7 C-3.45245824 9.30163882 -4.94738713 9.34490322 -9 9 C-9.66 8.34 -10.32 7.68 -11 7 C-10.34 6.34 -9.68 5.68 -9 5 C-7.02 5.66 -5.04 6.32 -3 7 C-1.79371992 4.66785852 -0.8345262 2.50357861 0 0 Z " fill="#193923" transform="translate(187,185)"/>
<path d="M0 0 C0.33 0.66 0.66 1.32 1 2 C0.34 2 -0.32 2 -1 2 C-1.33 2.99 -1.66 3.98 -2 5 C-5.04417008 7.08781576 -7.16151955 7.15271771 -10.75 6.625 C-11.54921875 6.51414063 -12.3484375 6.40328125 -13.171875 6.2890625 C-13.77515625 6.19367188 -14.3784375 6.09828125 -15 6 C-15 5.67 -15 5.34 -15 5 C-13.824375 4.9175 -12.64875 4.835 -11.4375 4.75 C-6.84530215 4.20155569 -3.85750735 2.49130683 0 0 Z " fill="#193B21" transform="translate(85,177)"/>
<path d="M0 0 C1.5 1.375 1.5 1.375 3 3 C3 3.66 3 4.32 3 5 C4.32 5 5.64 5 7 5 C7 5.66 7 6.32 7 7 C4.03 7 1.06 7 -2 7 C-2 5.68 -2 4.36 -2 3 C-1.34 3 -0.68 3 0 3 C0 2.01 0 1.02 0 0 Z " fill="#7AB439" transform="translate(254,174)"/>
<path d="M0 0 C0 3.63 0 7.26 0 11 C-0.99 11.33 -1.98 11.66 -3 12 C-3 8.37 -3 4.74 -3 1 C-1 0 -1 0 0 0 Z " fill="#22432F" transform="translate(283,165)"/>
<path d="M0 0 C0 0.33 0 0.66 0 1 C-2.64 1.33 -5.28 1.66 -8 2 C-8 5.3 -8 8.6 -8 12 C-11 9 -11 9 -11.29296875 6.95703125 C-11.1953125 4.97135417 -11.09765625 2.98567708 -11 1 C-7.32589215 -0.17571451 -3.83070817 -0.07366746 0 0 Z " fill="#2F631D" transform="translate(242,163)"/>
<path d="M0 0 C-0.99 0.495 -0.99 0.495 -2 1 C-0.68 1.99 0.64 2.98 2 4 C1.34 4.66 0.68 5.32 0 6 C-2.64 5.01 -5.28 4.02 -8 3 C-7.67 2.01 -7.34 1.02 -7 0 C-3.86650268 -1.04449911 -3.01031744 -0.93423645 0 0 Z " fill="#1D5B41" transform="translate(157,141)"/>
<path d="M0 0 C4.29 0 8.58 0 13 0 C12.01 1.485 12.01 1.485 11 3 C11 2.34 11 1.68 11 1 C9.329375 1.2784375 9.329375 1.2784375 7.625 1.5625 C4 2 4 2 2 1 C2 1.99 2 2.98 2 4 C2.66 4.66 3.32 5.32 4 6 C2.35 6 0.7 6 -1 6 C-0.67 4.02 -0.34 2.04 0 0 Z " fill="#8FCF39" transform="translate(50,129)"/>
<path d="M0 0 C0 2.64 0 5.28 0 8 C-0.86625 7.071875 -0.86625 7.071875 -1.75 6.125 C-3.80249821 4.18652947 -5.43366582 3.09985751 -8 2 C-8 1.34 -8 0.68 -8 0 C-4.94736336 -0.98120464 -3.05263664 -0.98120464 0 0 Z " fill="#4B8A4A" transform="translate(161,122)"/>
<path d="M0 0 C0.66 0 1.32 0 2 0 C2 1.98 2 3.96 2 6 C-2.29 6 -6.58 6 -11 6 C-10.67 5.34 -10.34 4.68 -10 4 C-9.071875 4.020625 -8.14375 4.04125 -7.1875 4.0625 C-3.97713989 4.15769604 -3.97713989 4.15769604 -1 3 C-0.67 2.01 -0.34 1.02 0 0 Z " fill="#2A5F3F" transform="translate(209,170)"/>
<path d="M0 0 C0.66 0 1.32 0 2 0 C3.12353516 5.18554688 3.12353516 5.18554688 3 8 C0.49501158 10.9470452 -0.95271677 11.90690816 -4.8125 12.25 C-5.534375 12.1675 -6.25625 12.085 -7 12 C-6.38125 11.71125 -5.7625 11.4225 -5.125 11.125 C-2.86674235 10.06279958 -2.86674235 10.06279958 -1 8 C-0.54188325 6.02764667 -0.54188325 6.02764667 -0.375 3.875 C-0.189375 1.956875 -0.189375 1.956875 0 0 Z " fill="#1E4F18" transform="translate(244,165)"/>
<path d="M0 0 C1.77503906 0.03480469 1.77503906 0.03480469 3.5859375 0.0703125 C5.36871094 0.09738281 5.36871094 0.09738281 7.1875 0.125 C8.10273438 0.14820313 9.01796875 0.17140625 9.9609375 0.1953125 C9.9609375 0.5253125 9.9609375 0.8553125 9.9609375 1.1953125 C9.32027344 1.19789063 8.67960937 1.20046875 8.01953125 1.203125 C1.15799373 1.50990015 -2.38677116 3.1578977 -7.0390625 8.1953125 C-4.63550573 0.29791168 -4.63550573 0.29791168 0 0 Z " fill="#193D27" transform="translate(416.0390625,132.8046875)"/>
<path d="M0 0 C3.69096643 2.46064429 4.46696367 3.8389014 6 8 C6.24308612 11.6817418 6.17697369 15.31632551 6 19 C5.67 19 5.34 19 5 19 C4.89042969 18.16855469 4.78085938 17.33710938 4.66796875 16.48046875 C4.50941406 15.39378906 4.35085937 14.30710938 4.1875 13.1875 C3.96126953 11.56908203 3.96126953 11.56908203 3.73046875 9.91796875 C2.95179288 6.80742932 2.22165932 6.12427152 0 4 C0 2.68 0 1.36 0 0 Z " fill="#568C36" transform="translate(88,149)"/>
<path d="M0 0 C0.99 0 1.98 0 3 0 C4.52150158 3.04300316 4.23899393 5.654085 4 9 C3.01 9.66 2.02 10.32 1 11 C0.67 7.37 0.34 3.74 0 0 Z " fill="#153623" transform="translate(521,158)"/>
<path d="M0 0 C2.48351743 2.48351743 2.98041975 4.66937119 4 8 C4.33 8.99 4.66 9.98 5 11 C2.525 10.01 2.525 10.01 0 9 C-1.125 2.25 -1.125 2.25 0 0 Z " fill="#39694C" transform="translate(185,124)"/>
<path d="M0 0 C0.66 0.33 1.32 0.66 2 1 C1.67 3.31 1.34 5.62 1 8 C-2.09478879 9.03159626 -3.52631393 8.97482862 -6.6875 8.5625 C-7.49574219 8.46066406 -8.30398437 8.35882813 -9.13671875 8.25390625 C-9.75160156 8.17011719 -10.36648437 8.08632812 -11 8 C-11 7.67 -11 7.34 -11 7 C-7.7 7 -4.4 7 -1 7 C-0.67 4.69 -0.34 2.38 0 0 Z " fill="#386D4E" transform="translate(214,172)"/>
<path d="M0 0 C0 0.33 0 0.66 0 1 C-1.65 1 -3.3 1 -5 1 C-4.67 1.99 -4.34 2.98 -4 4 C-4.99 4.495 -4.99 4.495 -6 5 C-6.65213292 7.02463255 -6.65213292 7.02463255 -7 9 C-7.66 9 -8.32 9 -9 9 C-9.36 3.6 -9.36 3.6 -7.875 1.125 C-5.21965017 -0.4682099 -3.03210482 -0.20214032 0 0 Z " fill="#7DC135" transform="translate(242,164)"/>
<path d="M0 0 C0.99 0 1.98 0 3 0 C2.67 2.97 2.34 5.94 2 9 C0.68 8.67 -0.64 8.34 -2 8 C-1.34 5.36 -0.68 2.72 0 0 Z " fill="#296C4F" transform="translate(213,152)"/>
<path d="M0 0 C3.69628969 -0.21742881 6.45781172 -0.20764658 9.9375 1.125 C12 3 12 3 12.3125 6.1875 C12.1578125 7.5796875 12.1578125 7.5796875 12 9 C10 7 10 7 9 4 C5.81237635 1.87491756 3.73487777 1.4979837 0 1 C0 0.67 0 0.34 0 0 Z " fill="#204C37" transform="translate(175,180)"/>
<path d="M0 0 C2.12508244 3.18762365 2.5020163 5.26512223 3 9 C1.68 9 0.36 9 -1 9 C-1.09765625 2.84765625 -1.09765625 2.84765625 -1 1 C-0.67 0.67 -0.34 0.34 0 0 Z " fill="#82C838" transform="translate(220,170)"/>
<path d="M0 0 C0.33 0.66 0.66 1.32 1 2 C3.86926731 3.63958132 6.92415918 4.80383968 10 6 C10 6.66 10 7.32 10 8 C6.46850054 7.67895459 4.44225392 7.34914783 1.625 5.125 C0 3 0 3 0 0 Z " fill="#204829" transform="translate(226,176)"/>
<path d="M0 0 C0.99 0.33 1.98 0.66 3 1 C3 1.99 3 2.98 3 4 C5.97 4 8.94 4 12 4 C11.67 4.66 11.34 5.32 11 6 C4.63636364 6.48951049 4.63636364 6.48951049 1.5625 4.125 C0 2 0 2 0 0 Z " fill="#68A834" transform="translate(65,166)"/>
<path d="M0 0 C4.875 4.75 4.875 4.75 6 7 C2.32579134 6.69381595 1.21864487 6.24228216 -1.3125 3.4375 C-1.869375 2.633125 -2.42625 1.82875 -3 1 C-2.01 0.67 -1.02 0.34 0 0 Z " fill="#12341F" transform="translate(343,162)"/>
<path d="M0 0 C0.99 0 1.98 0 3 0 C4.32 3.3 5.64 6.6 7 10 C6.34 10.66 5.68 11.32 5 12 C4.16180842 10.37750059 3.3295884 8.75191503 2.5 7.125 C2.0359375 6.22007812 1.571875 5.31515625 1.09375 4.3828125 C0 2 0 2 0 0 Z " fill="#366A4B" transform="translate(160,150)"/>
<path d="M0 0 C0.99 0 1.98 0 3 0 C1.63029745 2.95012857 0.17390875 5.5652222 -2 8 C-2.99 8 -3.98 8 -5 8 C-3.63029745 5.04987143 -2.17390875 2.4347778 0 0 Z " fill="#153524" transform="translate(596,151)"/>
<path d="M0 0 C1.47668858 0.0133035 2.95331108 0.03716415 4.4296875 0.0703125 C5.18378906 0.07933594 5.93789062 0.08835938 6.71484375 0.09765625 C8.57826004 0.1212438 10.44151343 0.15711531 12.3046875 0.1953125 C12.3046875 0.5253125 12.3046875 0.8553125 12.3046875 1.1953125 C11.32886719 1.23269531 10.35304688 1.27007812 9.34765625 1.30859375 C7.43919922 1.40720703 7.43919922 1.40720703 5.4921875 1.5078125 C3.59533203 1.59482422 3.59533203 1.59482422 1.66015625 1.68359375 C-1.66134943 1.9066619 -1.66134943 1.9066619 -3.64453125 3.73828125 C-3.99128906 4.21910156 -4.33804688 4.69992188 -4.6953125 5.1953125 C-5.0253125 4.2053125 -5.3553125 3.2153125 -5.6953125 2.1953125 C-3.6953125 0.1953125 -3.6953125 0.1953125 0 0 Z " fill="#92CE46" transform="translate(67.6953125,133.8046875)"/>
<path d="M0 0 C1.32 0 2.64 0 4 0 C4.33 1.32 4.66 2.64 5 4 C3.35 4.33 1.7 4.66 0 5 C-0.5625 3.0625 -0.5625 3.0625 -1 1 C-0.67 0.67 -0.34 0.34 0 0 Z " fill="#194B39" transform="translate(179,185)"/>
<path d="M0 0 C0.66 0 1.32 0 2 0 C1.75 1.875 1.75 1.875 1 4 C-1.95545121 6.11103658 -4.43855901 6.19785783 -8 6 C-6.49736177 2.99472353 -4.08347159 3.02782386 -1 2 C-0.67 1.34 -0.34 0.68 0 0 Z " fill="#153522" transform="translate(530,172)"/>
<path d="M0 0 C1.2065625 0.0309375 1.2065625 0.0309375 2.4375 0.0625 C2.1075 0.7225 1.7775 1.3825 1.4375 2.0625 C0.4475 2.0625 -0.5425 2.0625 -1.5625 2.0625 C-1.8925 3.7125 -2.2225 5.3625 -2.5625 7.0625 C-3.5525 6.7325 -4.5425 6.4025 -5.5625 6.0625 C-3.26136364 0.07954545 -3.26136364 0.07954545 0 0 Z " fill="#4B774F" transform="translate(151.5625,138.9375)"/>
<path d="M0 0 C-0.33 1.65 -0.66 3.3 -1 5 C-1.99 5 -2.98 5 -4 5 C-4 4.34 -4 3.68 -4 3 C-4.66 3 -5.32 3 -6 3 C-6 2.01 -6 1.02 -6 0 C-2.25 -1.125 -2.25 -1.125 0 0 Z " fill="#7ECB2A" transform="translate(175,121)"/>
<path d="M0 0 C0.99 0.495 0.99 0.495 2 1 C2 1.66 2 2.32 2 3 C2.99 3.33 3.98 3.66 5 4 C5 5.32 5 6.64 5 8 C3.68 8 2.36 8 1 8 C0.67 5.36 0.34 2.72 0 0 Z " fill="#62A418" transform="translate(256,171)"/>
<path d="M0 0 C0.33 0.99 0.66 1.98 1 3 C-0.62339805 4.70884005 -2.29319053 6.37446717 -4 8 C-4.66 8 -5.32 8 -6 8 C-6.33 7.01 -6.66 6.02 -7 5 C-6.34 5 -5.68 5 -5 5 C-3.29319053 3.37446717 -1.62339805 1.70884005 0 0 Z " fill="#143321" transform="translate(588,161)"/>
<path d="M0 0 C0.88171875 0.04640625 1.7634375 0.0928125 2.671875 0.140625 C3.56390625 0.17671875 4.4559375 0.2128125 5.375 0.25 C6.38820312 0.31960937 6.38820312 0.31960937 7.421875 0.390625 C7.421875 0.720625 7.421875 1.050625 7.421875 1.390625 C0.491875 2.875625 0.491875 2.875625 -6.578125 4.390625 C-2.578125 0.390625 -2.578125 0.390625 0 0 Z " fill="#3C702C" transform="translate(234.578125,154.609375)"/>
<path d="M0 0 C1.32 0.33 2.64 0.66 4 1 C5.125 4.3125 5.125 4.3125 6 8 C5.01 9.485 5.01 9.485 4 11 C4 8.69 4 6.38 4 4 C2.68 3.67 1.36 3.34 0 3 C0 2.01 0 1.02 0 0 Z " fill="#78BF3C" transform="translate(179,133)"/>
<path d="M0 0 C0.33 0.99 0.66 1.98 1 3 C-5.28571429 5.42857143 -5.28571429 5.42857143 -9 4 C-8 2 -8 2 -6.15234375 1.3671875 C-5.05599609 1.12355469 -5.05599609 1.12355469 -3.9375 0.875 C-3.20402344 0.70742187 -2.47054687 0.53984375 -1.71484375 0.3671875 C-1.14894531 0.24601563 -0.58304688 0.12484375 0 0 Z " fill="#9BD23E" transform="translate(99,143)"/>
<path d="M0 0 C2.3125 -0.3125 2.3125 -0.3125 5 0 C6.8125 2.5 6.8125 2.5 8 5 C7.01 6.485 7.01 6.485 6 8 C5.773125 7.195625 5.54625 6.39125 5.3125 5.5625 C4.879375 4.716875 4.44625 3.87125 4 3 C1.45224694 2.10613836 1.45224694 2.10613836 -1 2 C-0.67 1.34 -0.34 0.68 0 0 Z " fill="#94C454" transform="translate(171,117)"/>
<path d="M0 0 C2.29633824 3.44450737 2.54016485 5.93812283 3 10 C1.35 10 -0.3 10 -2 10 C-1.67 9.34 -1.34 8.68 -1 8 C-0.34 8 0.32 8 1 8 C0.67 5.36 0.34 2.72 0 0 Z " fill="#709E3D" transform="translate(167,171)"/>
<path d="M0 0 C1.32 0.33 2.64 0.66 4 1 C4 2.32 4 3.64 4 5 C0.62537285 4.45276317 -1.08235 3.9451 -4 2 C-2.68 2 -1.36 2 0 2 C0 1.34 0 0.68 0 0 Z " fill="#7BC326" transform="translate(153,155)"/>
<path d="M0 0 C0.66 0 1.32 0 2 0 C0.80100302 3.0831351 -0.47700477 6.06279492 -2 9 C-2.33 9 -2.66 9 -3 9 C-2.25 2.25 -2.25 2.25 0 0 Z " fill="#8CBF47" transform="translate(173,133)"/>
<path d="M0 0 C0.33 1.32 0.66 2.64 1 4 C0.34 4 -0.32 4 -1 4 C-1.33 4.99 -1.66 5.98 -2 7 C-4.64 7 -7.28 7 -10 7 C-10 6.67 -10 6.34 -10 6 C-8.3603125 5.62875 -8.3603125 5.62875 -6.6875 5.25 C-2.94091591 3.97997149 -1.89404734 3.34243648 0 0 Z " fill="#174815" transform="translate(80,166)"/>
<path d="M0 0 C2.39763185 2.39763185 2.34280586 3.33273498 2.625 6.625 C2.69976562 7.44226563 2.77453125 8.25953125 2.8515625 9.1015625 C2.90054687 9.72804687 2.94953125 10.35453125 3 11 C2.01 10.67 1.02 10.34 0 10 C0 6.7 0 3.4 0 0 Z " fill="#1D3F2D" transform="translate(340,152)"/>
<path d="M0 0 C0.33 0.99 0.66 1.98 1 3 C-2.51187196 5.40814077 -4.72656908 6.36629408 -9 6 C-8.443125 5.7525 -7.88625 5.505 -7.3125 5.25 C-4.60028873 3.78393985 -2.36412635 1.97010529 0 0 Z " fill="#7FB548" transform="translate(217,141)"/>
<path d="M0 0 C1.65 0.33 3.3 0.66 5 1 C4.67 1.99 4.34 2.98 4 4 C2.35 3.67 0.7 3.34 -1 3 C-0.67 2.01 -0.34 1.02 0 0 Z " fill="#82CC27" transform="translate(153,116)"/>
<path d="M0 0 C0.66 0.33 1.32 0.66 2 1 C1.25 3.4375 1.25 3.4375 0 6 C-2.125 6.8125 -2.125 6.8125 -4 7 C-4 5 -4 5 -2 3 C-1.34 2.01 -0.68 1.02 0 0 Z " fill="#72AF3A" transform="translate(64,138)"/>
<path d="M0 0 C2.97 0 5.94 0 9 0 C7.3125 1.5625 7.3125 1.5625 5 3 C2.25 2.6875 2.25 2.6875 0 2 C0 1.34 0 0.68 0 0 Z " fill="#20523B" transform="translate(203,180)"/>
<path d="M0 0 C0.66 0 1.32 0 2 0 C1.67 1.32 1.34 2.64 1 4 C0.34 4 -0.32 4 -1 4 C-1 4.66 -1 5.32 -1 6 C-1.99 6 -2.98 6 -4 6 C-2.84826645 3.53199953 -1.95216435 1.95216435 0 0 Z " fill="#193925" transform="translate(363,163)"/>
<path d="M0 0 C4.455 0.99 4.455 0.99 9 2 C8.01 2.33 7.02 2.66 6 3 C5.67 3.66 5.34 4.32 5 5 C3.35 3.35 1.7 1.7 0 0 Z " fill="#6BAB40" transform="translate(244,155)"/>
<path d="M0 0 C0.33 0.99 0.66 1.98 1 3 C-2.96 3 -6.92 3 -11 3 C-11 2.67 -11 2.34 -11 2 C-9.5422647 1.664061 -8.08378894 1.33133376 -6.625 1 C-5.40683594 0.7215625 -5.40683594 0.7215625 -4.1640625 0.4375 C-2 0 -2 0 0 0 Z " fill="#3A7451" transform="translate(182,147)"/>
<path d="M0 0 C-0.33 0.99 -0.66 1.98 -1 3 C-1.66 3 -2.32 3 -3 3 C-2.67 3.99 -2.34 4.98 -2 6 C-3.32 6 -4.64 6 -6 6 C-6 5.01 -6 4.02 -6 3 C-2.66666667 0 -2.66666667 0 0 0 Z " fill="#226448" transform="translate(196,130)"/>
<path d="M0 0 C2.9375 0.8125 2.9375 0.8125 6 2 C6.33 2.99 6.66 3.98 7 5 C5.5625 7.1875 5.5625 7.1875 4 9 C4 7.02 4 5.04 4 3 C2.68 2.34 1.36 1.68 0 1 C0 0.67 0 0.34 0 0 Z " fill="#34684B" transform="translate(192,122)"/>
<path d="M0 0 C1.32 0 2.64 0 4 0 C3.67 1.32 3.34 2.64 3 4 C1.68 3.67 0.36 3.34 -1 3 C-0.67 2.01 -0.34 1.02 0 0 Z " fill="#1C513C" transform="translate(205,185)"/>
<path d="M0 0 C0.33 0 0.66 0 1 0 C1.02698189 1.62490954 1.04638757 3.24994633 1.0625 4.875 C1.07410156 5.77992188 1.08570313 6.68484375 1.09765625 7.6171875 C1 10 1 10 0 12 C-0.66 12 -1.32 12 -2 12 C-1.34 8.04 -0.68 4.08 0 0 Z " fill="#1A3C2C" transform="translate(530,140)"/>
<path d="M0 0 C-0.33 1.32 -0.66 2.64 -1 4 C-1.66 4 -2.32 4 -3 4 C-3 3.01 -3 2.02 -3 1 C-4.32 0.67 -5.64 0.34 -7 0 C-3.86650268 -1.04449911 -3.01031744 -0.93423645 0 0 Z " fill="#87AF54" transform="translate(147,138)"/>
<path d="M0 0 C0.33 0.66 0.66 1.32 1 2 C1.99 2.33 2.98 2.66 4 3 C4 3.66 4 4.32 4 5 C2.35 5 0.7 5 -1 5 C-0.67 3.35 -0.34 1.7 0 0 Z " fill="#2C6748" transform="translate(132,114)"/>
</svg>
