<?xml version="1.0" encoding="UTF-8"?>
<svg version="1.1" xmlns="http://www.w3.org/2000/svg" width="556" height="448">
<path d="M0 0 C0.89074219 0.00515625 1.78148437 0.0103125 2.69921875 0.015625 C3.54097656 0.05171875 4.38273437 0.0878125 5.25 0.125 C6.37148437 0.15980469 6.37148437 0.15980469 7.515625 0.1953125 C11.60211833 1.51892512 14.30707029 3.6604494 17 7 C18.88689424 10.93015262 20.05543693 15.00228284 21.25 19.1875 C21.82445661 21.07775524 22.39895298 22.96799886 22.97499084 24.85777283 C23.58415283 26.86873177 24.1827102 28.88259388 24.77880859 30.89746094 C26.59230545 37.01336155 28.4912622 43.1025306 30.39776611 49.18997192 C30.84248894 50.60999385 31.28628966 52.03030488 31.72918701 53.45089722 C37.57277447 72.17250672 43.95769903 90.7150957 50.35394287 109.25378418 C51.76167019 113.34157378 53.15034997 117.43167596 54.46166992 121.55151367 C54.68291534 122.24073914 54.90416077 122.9299646 55.1321106 123.64007568 C55.70441871 125.43466539 56.26593282 127.23268793 56.82641602 129.03100586 C58.83476789 134.11183946 62.07115204 138.20559958 66.74658203 141.07006836 C76.89558716 145.25831977 92.45562968 141.03309466 103.00323486 139.66311646 C106.23860123 139.24337029 109.47520454 138.83480861 112.71240234 138.42944336 C117.07181098 137.88333365 121.43084943 137.33444111 125.78955078 136.78271484 C133.82023925 135.7684377 141.85300863 134.77413692 149.89199829 133.82775879 C151.36571329 133.65269584 152.83901791 133.4741383 154.31185913 133.29187012 C156.33448984 133.04165739 158.35862984 132.80373714 160.3828125 132.56640625 C161.50059082 132.43177979 162.61836914 132.29715332 163.77001953 132.15844727 C167.36756132 131.98196921 170.48421586 132.20858774 174 133 C176.16551116 136.24826674 176.55156953 137.23094157 176 141 C174.5625 143.25 174.5625 143.25 172 145 C169.00705341 145.61816453 166.05030234 145.8696452 163 146 C163.81248727 148.19483637 163.81248727 148.19483637 166.0390625 148.75390625 C166.89242187 149.02074219 167.74578125 149.28757813 168.625 149.5625 C174.59264642 151.83140431 177.84862334 155.5260491 181 161 C183.05605121 167.04720945 183.0680995 174.4779652 180.4375 180.3125 C177.13608708 186.01387622 172.27185304 190.01180451 166 192 C159.94823127 192.60871592 154.11197185 192.94284457 148.5 190.4375 C142.06805741 184.16635597 137.73552631 179.57306461 137.5625 170.25 C137.65574207 163.84293779 138.61550599 159.71809682 143 155 C145.6875 152.625 145.6875 152.625 148 151 C148.66 150.34 149.32 149.68 150 149 C149.67 148.67 149.34 148.34 149 148 C146.68548069 148.03882419 144.37217697 148.15790624 142.0625 148.3125 C140.79535156 148.39113281 139.52820313 148.46976563 138.22265625 148.55078125 C135.27793102 148.80997806 132.46304032 149.28757069 129.57421875 149.91015625 C122.79406341 151.33185405 115.92454671 152.06889051 109.04882812 152.85986328 C106.74017863 153.12613275 104.43259428 153.40053219 102.125 153.67578125 C100.64068135 153.84944065 99.15630811 154.02263422 97.671875 154.1953125 C96.64981964 154.31714401 96.64981964 154.31714401 95.6071167 154.44143677 C91.71680579 154.88348182 87.91434866 155.07810498 84 155 C84 155.66 84 156.32 84 157 C84.99 157.061875 85.98 157.12375 87 157.1875 C92.9911633 158.06070599 97.88630485 161.4795466 101.875 165.9375 C105.886703 171.71907197 106.72622679 177.11255882 106 184 C104.670265 190.52779001 101.26168112 194.99815802 96 199 C90.16001512 202.48176689 83.64139101 202.8532006 77 202 C70.75929694 200.19545935 66.56445288 196.33495415 63 191 C60.19818184 185.2690083 60.01026582 178.69224188 61.65234375 172.56640625 C63.62862743 167.53663704 66.12071346 164.51777819 70.51171875 161.38671875 C72.331087 159.69150686 72.61331595 158.41806428 73 156 C71.72125 155.79375 70.4425 155.5875 69.125 155.375 C60.35500468 153.37555138 54.01373218 148.79167287 48.5703125 141.734375 C44.52276318 134.68640356 42.16387901 126.73404822 39.75 119.0078125 C39.4550766 118.07572968 39.1601532 117.14364685 38.85629272 116.18331909 C38.22682316 114.19364673 37.59887734 112.20349176 36.97235107 110.21289062 C35.31639422 104.95407643 33.6471921 99.69948103 31.9765625 94.4453125 C31.64137604 93.39096008 31.30618958 92.33660767 30.96084595 91.25030518 C27.84549554 81.47334233 24.63515595 71.72952791 21.375 62 C21.13555664 61.28539612 20.89611328 60.57079224 20.64941406 59.83453369 C19.53371512 56.50745677 18.4156147 53.18119556 17.29589844 49.85546875 C15.18267073 43.57519363 13.09236264 37.28725051 11 31 C10.40050537 30.98541748 9.80101074 30.97083496 9.18334961 30.95581055 C6.43412545 30.88076179 3.68604111 30.78429248 0.9375 30.6875 C-0.00544922 30.66494141 -0.94839844 30.64238281 -1.91992188 30.61914062 C-8.86341133 30.35301385 -14.43224802 29.77046924 -19.375 24.4375 C-22.14059822 20.28910267 -22.63057004 16.93226704 -22 12 C-20.411705 7.36678712 -18.41945722 3.42357332 -14 1 C-9.3781999 -0.54060003 -4.83330063 -0.12669202 0 0 Z " fill="#F7F6F7" transform="translate(170,101)"/>
<path d="M0 0 C0.93971649 -0.0033284 1.87943298 -0.0066568 2.84762573 -0.01008606 C4.81556719 -0.01510522 6.783517 -0.01749596 8.75146484 -0.01733398 C11.74200459 -0.01953112 14.73218095 -0.03776941 17.72265625 -0.05664062 C19.64843626 -0.05957361 21.57421799 -0.06155904 23.5 -0.0625 C24.82223068 -0.07327827 24.82223068 -0.07327827 26.1711731 -0.08427429 C32.67563808 -0.06058405 39.5898291 0.12450183 45.1171875 3.85546875 C47.17880053 7.03378884 47.55095411 9.39266574 47.6171875 13.16796875 C46.02879816 16.74184477 44.90084392 17.97886447 41.6171875 20.16796875 C41.23005554 23.00164778 41.05575531 25.63219453 40.9921875 28.48046875 C40.95988037 29.37185547 40.92757324 30.26324219 40.89428711 31.18164062 C40.70423239 36.76146404 40.58923185 42.34325543 40.46466064 47.92485046 C40.40954551 50.36295436 40.35165975 52.8009817 40.29345703 55.23901367 C40.21636417 58.46953922 40.15252945 61.69994381 40.09716797 64.9309082 C39.58367216 90.49954471 39.58367216 90.49954471 33.6171875 97.16796875 C30.2342951 100.3000215 26.78484002 100.98145706 22.359375 101.66796875 C21.62298798 101.78978516 20.88660095 101.91160156 20.12789917 102.03710938 C9.70793147 103.70809606 -0.78165491 104.91220333 -11.2578125 106.16796875 C-23.65328878 107.65892032 -36.0279986 109.15654078 -48.34432983 111.2154541 C-61.6198156 113.41913716 -61.6198156 113.41913716 -67.6953125 110.66796875 C-74.16872495 104.64618973 -76.34495351 97.70620697 -78.80078125 89.3671875 C-80.60619509 83.29977299 -82.6783489 77.32230623 -84.71322632 71.3291626 C-88.11866759 61.29117396 -91.43387265 51.28114307 -93.76171875 40.92651367 C-94.85925717 36.27130448 -96.66023676 33.06455045 -99.3828125 29.16796875 C-99.9453125 25.60546875 -99.9453125 25.60546875 -99.3828125 22.16796875 C-95.71476276 17.59701446 -91.8049978 15.8318964 -86.3203125 14.23046875 C-85.50377197 13.98377441 -84.68723145 13.73708008 -83.84594727 13.48291016 C-57.01777315 5.66945464 -28.01865005 0.03553503 0 0 Z M-35.3828125 19.16796875 C-36.39230957 19.35020996 -37.40180664 19.53245117 -38.44189453 19.72021484 C-59.64390644 22.0362225 -59.64390644 22.0362225 -78.3828125 30.16796875 C-77.92317187 36.26173459 -76.47004429 41.70502243 -74.58203125 47.49609375 C-74.30438431 48.36635193 -74.02673737 49.23661011 -73.74067688 50.13323975 C-72.85712113 52.89697157 -71.96382243 55.65744117 -71.0703125 58.41796875 C-70.48179253 60.25500683 -69.89389655 62.09224494 -69.30664062 63.9296875 C-66.39270615 73.02939643 -63.43897541 82.11491693 -60.3828125 91.16796875 C-53.32929518 90.4552696 -46.37517218 89.39068409 -39.3828125 88.23046875 C-19.0837922 84.9516903 1.10992298 83.37690805 21.6171875 82.16796875 C23.25544619 67.59450189 24.16090184 53.06874004 24.7421875 38.41796875 C24.82889862 36.3411237 24.91613573 34.26430055 25.00390625 32.1875 C25.21436686 27.1812199 25.41781566 22.1747022 25.6171875 17.16796875 C22.58466303 15.65170652 19.42964379 15.98490766 16.1015625 15.96484375 C14.96334045 15.95432228 14.96334045 15.95432228 13.80212402 15.94358826 C11.32375255 15.92594731 8.84561972 15.9197225 6.3671875 15.91796875 C5.52329468 15.91729401 4.67940186 15.91661926 3.80993652 15.91592407 C-9.49503557 15.9328632 -22.28977333 16.67280342 -35.3828125 19.16796875 Z " fill="#F1F1F1" transform="translate(309.3828125,125.83203125)"/>
<path d="M0 0 C2.31 0.33 4.62 0.66 7 1 C9.62125564 10.26176991 10.15725801 19.40726137 10 29 C15.28 29 20.56 29 26 29 C27 34 27 34 26.125 36.1875 C20.48759587 40.99587411 11.84110714 40.30133059 4.8203125 40.55859375 C2 40 2 40 0.37597656 37.89477539 C-2.0079449 32.87948852 -1.91449788 27.55958405 -2.24560547 22.08007812 C-2.37473129 20.00431964 -2.53561533 17.93266755 -2.69921875 15.859375 C-2.78558594 14.54453125 -2.87195313 13.2296875 -2.9609375 11.875 C-3.04134277 10.67617187 -3.12174805 9.47734375 -3.20458984 8.2421875 C-2.97795489 4.65064548 -2.09090916 2.88120079 0 0 Z " fill="#EAEAEA" transform="translate(255,157)"/>
<path d="M0 0 C4.75 1.875 4.75 1.875 7 3 C7 4.32 7 5.64 7 7 C7.495 7.7425 7.99 8.485 8.5 9.25 C10.5705124 13.04593939 10.21790784 15.71447916 10 20 C9.01 20.33 8.02 20.66 7 21 C6.74605469 19.96359375 6.49210938 18.9271875 6.23046875 17.859375 C5.88329853 16.48946007 5.53561521 15.1196751 5.1875 13.75 C4.9390332 12.72712891 4.9390332 12.72712891 4.68554688 11.68359375 C3.68867455 7.8089579 2.55042387 5.06927801 0 2 C0 1.34 0 0.68 0 0 Z " fill="#BDBDBD" transform="translate(211,155)"/>
<path d="M0 0 C3.88756906 4.5943998 5.17016252 9.0443117 5 15 C5.33 15.33 5.66 15.66 6 16 C6.14115161 18.67058851 6.04247107 21.32432238 6 24 C3.88336698 19.91621047 2.39448732 15.70808345 0.875 11.375 C0.59785156 10.59898437 0.32070312 9.82296875 0.03515625 9.0234375 C-2 3.24880696 -2 3.24880696 -2 1 C-1.34 0.67 -0.68 0.34 0 0 Z " fill="#CECECE" transform="translate(227,195)"/>
<path d="M0 0 C5.50973599 -0.09427305 11.00189223 -0.09296517 16.5 0.3125 C17.2940625 0.37050781 18.088125 0.42851563 18.90625 0.48828125 C21.40180742 1.09820293 22.37351298 2.05551392 24 4 C19.90274731 5.04167441 16.38504776 4.94409525 12.1875 4.5625 C11.02605469 4.46066406 9.86460937 4.35882813 8.66796875 4.25390625 C7.78753906 4.17011719 6.90710938 4.08632812 6 4 C6.33 3.34 6.66 2.68 7 2 C4.69 1.67 2.38 1.34 0 1 C0 0.67 0 0.34 0 0 Z " fill="#BFBEBF" transform="translate(159,101)"/>
<path d="M0 0 C0.66 0 1.32 0 2 0 C0.60874484 5.25585282 -2.73006951 7.9474147 -7 11 C-10.05002596 12.52501298 -11.58977476 13 -15 13 C-15 12.01 -15 11.02 -15 10 C-13.9275 9.566875 -12.855 9.13375 -11.75 8.6875 C-8.82249233 7.44552705 -6.51541059 5.95643046 -4 4 C-3.34 4 -2.68 4 -2 4 C-1.34 2.68 -0.68 1.36 0 0 Z " fill="#B6B6B6" transform="translate(348,280)"/>
<path d="M0 0 C2.01003635 3.01505452 2.99171541 5.57496212 4.125 9 C4.47820312 10.051875 4.83140625 11.10375 5.1953125 12.1875 C6 15 6 15 6 18 C3.525 17.01 3.525 17.01 1 16 C1 15.34 1 14.68 1 14 C1.66 14 2.32 14 3 14 C2.67 13.01 2.34 12.02 2 11 C1.34 11 0.68 11 0 11 C-1.31626692 7.38026598 -2 4.90432869 -2 1 C-1.34 0.67 -0.68 0.34 0 0 Z " fill="#DDDDDD" transform="translate(217,203)"/>
<path d="M0 0 C1.82875404 2.74313106 2.72037028 4.77074949 3.6875 7.875 C3.95949219 8.71804687 4.23148438 9.56109375 4.51171875 10.4296875 C5.05258938 13.27683047 4.7420711 15.22096865 4 18 C0.71779105 16.35889552 0.25429211 13.30677012 -1 10 C-1 9.01 -1 8.02 -1 7 C-1.31088368 5.32900023 -1.64080332 3.66128463 -2 2 C-1.34 2 -0.68 2 0 2 C0 1.34 0 0.68 0 0 Z " fill="#CDCDCD" transform="translate(237,180)"/>
<path d="M0 0 C0.66 0 1.32 0 2 0 C5.25647205 4.16828422 5.75491662 7.85324911 6 13 C5.34 14.32 4.68 15.64 4 17 C2.35 11.72 0.7 6.44 -1 1 C-0.67 0.67 -0.34 0.34 0 0 Z " fill="#C1C1C1" transform="translate(205,200)"/>
<path d="M0 0 C2.375 0.6875 2.375 0.6875 5 2 C5.66666667 3.66666667 6.33333333 5.33333333 7 7 C9.52372901 8.36078035 9.52372901 8.36078035 12 9 C11.67 9.99 11.34 10.98 11 12 C5.90025053 10.65006632 2.80502464 7.32802771 0 3 C0 2.01 0 1.02 0 0 Z " fill="#E4E4E4" transform="translate(233,289)"/>
<path d="M0 0 C0.99 0 1.98 0 3 0 C3.70453003 1.86866762 4.38791688 3.74531416 5.0625 5.625 C5.44535156 6.66914063 5.82820312 7.71328125 6.22265625 8.7890625 C7.06577837 12.27170764 6.82495611 14.54452348 6 18 C3.98996365 14.98494548 3.00828459 12.42503788 1.875 9 C1.52179688 7.948125 1.16859375 6.89625 0.8046875 5.8125 C0 3 0 3 0 0 Z " fill="#D8D8D8" transform="translate(189,153)"/>
<path d="M0 0 C2.27141109 0.11402064 4.54214552 0.24158505 6.8125 0.375 C8.07707031 0.44460938 9.34164062 0.51421875 10.64453125 0.5859375 C14 1 14 1 17 3 C13.93301363 4.02232879 11.71335122 4.1659049 8.5 4.1875 C7.06140625 4.20876953 7.06140625 4.20876953 5.59375 4.23046875 C3 4 3 4 0 2 C0 1.34 0 0.68 0 0 Z " fill="#F2F0F1" transform="translate(244,299)"/>
<path d="M0 0 C0.66 0 1.32 0 2 0 C1.70876501 5.97031739 -1.02814384 8.894534 -5 13 C-5.66 12.67 -6.32 12.34 -7 12 C-6.33333333 10.66666667 -5.66666667 9.33333333 -5 8 C-4.505 6.96875 -4.01 5.9375 -3.5 4.875 C-2 2 -2 2 0 0 Z " fill="#DEDEDE" transform="translate(273,285)"/>
<path d="M0 0 C5.06998019 0.65419099 9.41990777 2.8546409 14 5 C13 7 13 7 11.3125 7.875 C7.64563869 8.07320872 5.80996281 6.21209838 3 4 C1.125 1.75 1.125 1.75 0 0 Z " fill="#C5C5C5" transform="translate(313,285)"/>
<path d="M0 0 C-0.99 0.33 -1.98 0.66 -3 1 C-3.33 1.99 -3.66 2.98 -4 4 C-5.91503674 4.22281874 -7.83216506 4.42771076 -9.75 4.625 C-10.81734375 4.74101562 -11.8846875 4.85703125 -12.984375 4.9765625 C-16.03792399 5.00029475 -17.46162421 4.61420985 -20 3 C-17.60530271 2.49395076 -15.20948283 1.99500483 -12.8125 1.5 C-12.13896484 1.35691406 -11.46542969 1.21382812 -10.77148438 1.06640625 C-7.12490207 0.31930158 -3.72351043 -0.17352282 0 0 Z " fill="#CECECE" transform="translate(267,131)"/>
<path d="M0 0 C4.43601966 3.51822249 5.52033129 7.75390186 7 13 C6.01 13.33 5.02 13.66 4 14 C3.32471777 12.42032193 2.66010306 10.83608097 2 9.25 C1.62875 8.36828125 1.2575 7.4865625 0.875 6.578125 C0 4 0 4 0 0 Z " fill="#D1D1D1" transform="translate(195,171)"/>
<path d="M0 0 C2.66315194 2.66315194 2.94426493 4.65344068 3.09765625 8.359375 C3.08605469 9.14828125 3.07445312 9.9371875 3.0625 10.75 C3.05347656 11.54921875 3.04445313 12.3484375 3.03515625 13.171875 C3.01775391 14.07679688 3.01775391 14.07679688 3 15 C1.68 14.34 0.36 13.68 -1 13 C-1.02708567 11.39592672 -1.04643483 9.7917215 -1.0625 8.1875 C-1.07410156 7.29417969 -1.08570313 6.40085937 -1.09765625 5.48046875 C-1 3 -1 3 0 0 Z " fill="#CBCBCB" transform="translate(273,270)"/>
<path d="M0 0 C1.32 0 2.64 0 4 0 C4.05410687 1.77049689 4.09284119 3.54146849 4.125 5.3125 C4.14820313 6.29863281 4.17140625 7.28476562 4.1953125 8.30078125 C4 11 4 11 2 14 C1.34 13.67 0.68 13.34 0 13 C0 8.71 0 4.42 0 0 Z " fill="#C5C5C7" transform="translate(348,266)"/>
<path d="M0 0 C0.33 0.99 0.66 1.98 1 3 C-0.32711192 3.35729936 -1.66262906 3.68325425 -3 4 C-3.99 4.268125 -4.98 4.53625 -6 4.8125 C-9 5 -9 5 -11.375 3.0625 C-12.179375 2.0415625 -12.179375 2.0415625 -13 1 C-8.60563789 0.14256349 -4.47427924 -0.08948558 0 0 Z " fill="#D4D4D4" transform="translate(287,128)"/>
<path d="M0 0 C-1.60032137 0.84069415 -3.20541171 1.67231505 -4.8125 2.5 C-6.15248047 3.19609375 -6.15248047 3.19609375 -7.51953125 3.90625 C-10 5 -10 5 -13 5 C-13 4.34 -13 3.68 -13 3 C-13.99 2.67 -14.98 2.34 -16 2 C-14.08654673 1.46748234 -12.1690705 0.94940517 -10.25 0.4375 C-9.18265625 0.14746094 -8.1153125 -0.14257812 -7.015625 -0.44140625 C-4.15664073 -0.97098494 -2.68402617 -0.98370862 0 0 Z " fill="#CBCBCB" transform="translate(243,137)"/>
<path d="M0 0 C0.66 0.33 1.32 0.66 2 1 C1.64766839 6.4611399 1.64766839 6.4611399 1 9 C-1.0625 10.5 -1.0625 10.5 -3 11 C-3.36923077 4.6 -3.36923077 4.6 -1.5 1.5625 C-1.005 1.046875 -0.51 0.53125 0 0 Z " fill="#D0D0D0" transform="translate(213,144)"/>
<path d="M0 0 C1.5625 1.6875 1.5625 1.6875 3 4 C2.6875 6.75 2.6875 6.75 2 9 C2.66 9.33 3.32 9.66 4 10 C4 10.66 4 11.32 4 12 C3.34 12 2.68 12 2 12 C1.67 12.66 1.34 13.32 1 14 C0.49487756 12.39743892 -0.00391627 10.79288208 -0.5 9.1875 C-0.7784375 8.29417969 -1.056875 7.40085938 -1.34375 6.48046875 C-2 4 -2 4 -2 1 C-1.34 0.67 -0.68 0.34 0 0 Z " fill="#BCBCBC" transform="translate(212,216)"/>
<path d="M0 0 C0.66 0 1.32 0 2 0 C2.16435547 0.95712891 2.16435547 0.95712891 2.33203125 1.93359375 C2.49058594 2.75988281 2.64914063 3.58617187 2.8125 4.4375 C2.96332031 5.26121094 3.11414063 6.08492187 3.26953125 6.93359375 C3.51058594 7.61550781 3.75164062 8.29742187 4 9 C4.99 9.33 5.98 9.66 7 10 C5.02 10.99 5.02 10.99 3 12 C2.30062798 10.5682384 1.61587282 9.12932968 0.9375 7.6875 C0.55464844 6.88699219 0.17179688 6.08648437 -0.22265625 5.26171875 C-1 3 -1 3 0 0 Z " fill="#D0D0D0" transform="translate(245,208)"/>
<path d="M0 0 C1.32 0 2.64 0 4 0 C4.38922918 1.28745036 4.76098036 2.58019597 5.125 3.875 C5.33382813 4.59429687 5.54265625 5.31359375 5.7578125 6.0546875 C5.83773438 6.69664062 5.91765625 7.33859375 6 8 C5.34 8.66 4.68 9.32 4 10 C0 3.375 0 3.375 0 0 Z " fill="#BFBFBF" transform="translate(308,275)"/>
<path d="M0 0 C2.375 0.3125 2.375 0.3125 5 1 C7 4 7 4 6.625 6.6875 C6.41875 7.450625 6.2125 8.21375 6 9 C0.42857143 3.85714286 0.42857143 3.85714286 0 0 Z " fill="#CFCFCF" transform="translate(217,238)"/>
<path d="M0 0 C6.4 0.49230769 6.4 0.49230769 9.4375 3.0625 C10.2109375 4.0215625 10.2109375 4.0215625 11 5 C10.34 5.66 9.68 6.32 9 7 C8.278125 6.319375 7.55625 5.63875 6.8125 4.9375 C4.1794348 2.68262931 4.1794348 2.68262931 1.1875 3.25 C0.1046875 3.62125 0.1046875 3.62125 -1 4 C-0.67 2.68 -0.34 1.36 0 0 Z " fill="#D5D3D4" transform="translate(345,127)"/>
<path d="M0 0 C1.9375 0.625 1.9375 0.625 4 2 C4.9375 4.9375 4.9375 4.9375 5 8 C3.5625 9.875 3.5625 9.875 2 11 C0.80712589 7.12315913 0 4.08378077 0 0 Z " fill="#BEBEBE" transform="translate(219,176)"/>
<path d="M0 0 C2.45823172 3.68734758 3.01242616 6.69699971 4 11 C2.68 10.34 1.36 9.68 0 9 C0 8.34 0 7.68 0 7 C-0.66 6.67 -1.32 6.34 -2 6 C-1.49396008 3.83125748 -1.00016187 2.00032373 0 0 Z " fill="#A4A4A4" transform="translate(242,196)"/>
<path d="M0 0 C2.52259061 1.97420135 2.9929808 2.96745642 3.6875 6.1875 C3.790625 7.115625 3.89375 8.04375 4 9 C3.01 9.33 2.02 9.66 1 10 C0.63883954 8.5225254 0.28624952 7.04295325 -0.0625 5.5625 C-0.25972656 4.73878906 -0.45695313 3.91507813 -0.66015625 3.06640625 C-0.82837891 2.04353516 -0.82837891 2.04353516 -1 1 C-0.67 0.67 -0.34 0.34 0 0 Z " fill="#E4E4E4" transform="translate(202,188)"/>
<path d="M0 0 C0.99 0 1.98 0 3 0 C4.4783226 2.95664519 4.06032783 5.74229737 4 9 C3.01 8.67 2.02 8.34 1 8 C0.67 5.36 0.34 2.72 0 0 Z " fill="#D4D4D4" transform="translate(253,175)"/>
<path d="M0 0 C-1.65 0.66 -3.3 1.32 -5 2 C-5 2.66 -5 3.32 -5 4 C-6.65 4 -8.3 4 -10 4 C-10 3.01 -10 2.02 -10 1 C-3.375 -1.125 -3.375 -1.125 0 0 Z " fill="#CECECE" transform="translate(227,141)"/>
<path d="M0 0 C1.29643023 4.69955958 0.93477538 7.52583194 -1 12 C-3 9 -3 9 -2.75 6 C-2 3 -2 3 0 0 Z " fill="#C2C2C2" transform="translate(235,267)"/>
<path d="M0 0 C2.05078125 0.03255208 4.1015625 0.06510417 6.15234375 0.09765625 C6.15234375 1.08765625 6.15234375 2.07765625 6.15234375 3.09765625 C3.33984375 3.78515625 3.33984375 3.78515625 0.15234375 4.09765625 C-1.72265625 2.66015625 -1.72265625 2.66015625 -2.84765625 1.09765625 C-1.84765625 0.09765625 -1.84765625 0.09765625 0 0 Z " fill="#DCDCDC" transform="translate(256.84765625,144.90234375)"/>
<path d="M0 0 C0.33 0.66 0.66 1.32 1 2 C1.66 2 2.32 2 3 2 C3.33 3.65 3.66 5.3 4 7 C3.01 7.33 2.02 7.66 1 8 C-1 5 -1 5 -0.625 2.3125 C-0.41875 1.549375 -0.2125 0.78625 0 0 Z " fill="#CCCCCC" transform="translate(196,144)"/>
<path d="M0 0 C0.33 2.31 0.66 4.62 1 7 C0.01 7 -0.98 7 -2 7 C-2.66 5.02 -3.32 3.04 -4 1 C-2 0 -2 0 0 0 Z " fill="#BBBBBB" transform="translate(191,120)"/>
<path d="M0 0 C2.5 2.3125 2.5 2.3125 5 5 C5 5.99 5 6.98 5 8 C2.525 7.01 2.525 7.01 0 6 C0 4 0 2 0 0 Z " fill="#B7B7B7" transform="translate(183,105)"/>
<path d="M0 0 C2.12508244 3.18762365 2.5020163 5.26512223 3 9 C1.0625 8.3125 1.0625 8.3125 -1 7 C-1.75 4.375 -1.75 4.375 -2 2 C-1.34 2 -0.68 2 0 2 C0 1.34 0 0.68 0 0 Z " fill="#B6B6B6" transform="translate(237,180)"/>
<path d="M0 0 C4.75 1.875 4.75 1.875 7 3 C6.67 3.99 6.34 4.98 6 6 C3.5625 5.25 3.5625 5.25 1 4 C0.1875 1.875 0.1875 1.875 0 0 Z " fill="#D4D4D4" transform="translate(211,155)"/>
<path d="M0 0 C0.86625 0.556875 0.86625 0.556875 1.75 1.125 C1.75 1.785 1.75 2.445 1.75 3.125 C-1.125 3.25 -1.125 3.25 -4.25 3.125 C-4.91 2.465 -5.57 1.805 -6.25 1.125 C-2.80384615 -1.09038462 -2.80384615 -1.09038462 0 0 Z " fill="#BFBFBF" transform="translate(294.25,139.875)"/>
<path d="M0 0 C0.99 0.33 1.98 0.66 3 1 C3.36923077 5.55384615 3.36923077 5.55384615 1.5 7.8125 C1.005 8.204375 0.51 8.59625 0 9 C-1.125 2.25 -1.125 2.25 0 0 Z " fill="#C4C4C4" transform="translate(309,262)"/>
<path d="M0 0 C1.53202706 0.25195908 3.05257128 0.57596777 4.5625 0.9375 C5.38878906 1.13214844 6.21507812 1.32679688 7.06640625 1.52734375 C8.02353516 1.76130859 8.02353516 1.76130859 9 2 C9 2.33 9 2.66 9 3 C4.545 3.495 4.545 3.495 0 4 C-0.33 3.01 -0.66 2.02 -1 1 C-0.67 0.67 -0.34 0.34 0 0 Z " fill="#A6A6A6" transform="translate(265,143)"/>
<path d="M0 0 C0.33 0 0.66 0 1 0 C1.125 5.75 1.125 5.75 0 8 C-0.66 8 -1.32 8 -2 8 C-2.125 5.125 -2.125 5.125 -2 2 C-1.34 1.34 -0.68 0.68 0 0 Z " fill="#F7F7F7" transform="translate(255,167)"/>
<path d="M0 0 C2.35953094 2.35953094 2.49141413 3.77895617 3 7 C2.01 7.33 1.02 7.66 0 8 C-1.125 2.25 -1.125 2.25 0 0 Z " fill="#E7E7E7" transform="translate(205,169)"/>
<path d="M0 0 C2.875 -0.125 2.875 -0.125 6 0 C6.66 0.66 7.32 1.32 8 2 C6.02 2.66 4.04 3.32 2 4 C1.34 2.68 0.68 1.36 0 0 Z " fill="#D3D3D3" transform="translate(267,130)"/>
<path d="M0 0 C2.31 0 4.62 0 7 0 C6.01 1.485 6.01 1.485 5 3 C2.375 3.1875 2.375 3.1875 0 3 C0 2.01 0 1.02 0 0 Z " fill="#F2F0F1" transform="translate(160,102)"/>
<path d="M0 0 C0.66 0.66 1.32 1.32 2 2 C1.625 5.625 1.625 5.625 1 9 C0.34 8.67 -0.32 8.34 -1 8 C-0.67 5.36 -0.34 2.72 0 0 Z " fill="#BEBEBE" transform="translate(273,270)"/>
<path d="M0 0 C1.88391785 3.26545761 2.49287967 6.28111761 3 10 C1.68 9.34 0.36 8.68 -1 8 C-0.67 5.36 -0.34 2.72 0 0 Z " fill="#A6A6A6" transform="translate(234,170)"/>
<path d="M0 0 C2 3 2 3 1.75 5.125 C1 7 1 7 -1 8 C-1.33 6.35 -1.66 4.7 -2 3 C-1.34 3 -0.68 3 0 3 C0 2.01 0 1.02 0 0 Z " fill="#BCBCBC" transform="translate(193,130)"/>
<path d="M0 0 C1.65 0.33 3.3 0.66 5 1 C1.68629 3.20914 0.6553979 3.22481553 -3.1875 3.125 C-4.08855469 3.10695313 -4.98960937 3.08890625 -5.91796875 3.0703125 C-6.60503906 3.04710937 -7.29210937 3.02390625 -8 3 C-8 2.67 -8 2.34 -8 2 C-5.36 2 -2.72 2 0 2 C0 1.34 0 0.68 0 0 Z " fill="#E6E5E6" transform="translate(256,300)"/>
<path d="M0 0 C0.66 0.33 1.32 0.66 2 1 C0.35 2.65 -1.3 4.3 -3 6 C-3.99 5.67 -4.98 5.34 -6 5 C-4.02 3.35 -2.04 1.7 0 0 Z " fill="#A3A3A3" transform="translate(242,261)"/>
<path d="M0 0 C0.66 0 1.32 0 2 0 C2.33 1.98 2.66 3.96 3 6 C2.01 6 1.02 6 0 6 C-0.38218767 4.34385343 -0.71395102 2.67542976 -1 1 C-0.67 0.67 -0.34 0.34 0 0 Z " fill="#B8B8B8" transform="translate(245,208)"/>
<path d="M0 0 C1.32 0.33 2.64 0.66 4 1 C4.33 2.32 4.66 3.64 5 5 C4.01 5.33 3.02 5.66 2 6 C1.34 4.02 0.68 2.04 0 0 Z " fill="#D3D3D3" transform="translate(199,158)"/>
</svg>
